<svg version="1.1" id="Layer_1" xmlns="http://www.w3.org/2000/svg" xmlns:xlink="http://www.w3.org/1999/xlink" x="0px" y="0px"
	 width="100%" viewBox="0 0 297 170" enable-background="new 0 0 297 170" xml:space="preserve">
<path fill="#FFFEFE" opacity="1.000000" stroke="none" 
	d="
M70.000000,171.000000 
	C47.016945,171.000000 24.033890,171.000000 1.025417,171.000000 
	C1.025417,114.392036 1.025417,57.784054 1.025417,1.088037 
	C99.999962,1.088037 198.999969,1.088037 298.000000,1.088037 
	C298.000000,20.090731 298.000000,39.076706 297.575897,58.467636 
	C296.117432,58.389687 295.083038,57.906780 294.033234,57.257935 
	C285.418274,54.983650 285.027710,55.239796 284.695007,63.038246 
	C284.489105,64.275414 284.617828,65.460770 284.746552,66.646118 
	C285.831970,66.104340 286.917358,65.562561 288.344666,64.966080 
	C290.234192,64.016640 291.781769,63.121895 293.786865,62.351933 
	C295.496246,62.317810 296.748138,62.158905 298.000000,62.000000 
	C298.000000,98.226334 298.000000,134.452667 298.000000,171.000000 
	C284.980865,171.000000 271.959076,171.000000 258.518982,170.542084 
	C258.051605,166.399582 258.002594,162.715012 258.209198,158.750122 
	C258.785919,154.389267 259.106964,150.308746 259.387695,145.759613 
	C260.501160,137.167938 257.610687,131.738861 249.000000,129.683212 
	C248.863464,127.306534 248.894363,125.255226 249.297058,123.132782 
	C253.907150,121.564827 254.685837,117.882042 255.588150,113.891312 
	C253.693100,106.281952 245.030487,102.129372 237.165237,105.988960 
	C230.346558,109.334976 237.897263,112.986511 238.214127,116.594925 
	C238.233276,116.813026 238.685196,116.993141 238.877869,117.534012 
	C234.753494,121.302299 235.535355,124.273438 241.328705,126.752373 
	C240.454681,127.586868 239.639694,128.365005 238.502121,129.104584 
	C237.317719,129.097717 236.455902,129.129410 235.147247,129.220688 
	C232.467880,129.525284 230.159973,129.497345 228.022797,130.087616 
	C225.604874,130.755417 223.340179,131.978027 220.681320,132.844727 
	C217.201996,125.290993 214.050201,117.851929 211.078796,110.838631 
	C208.550552,112.745872 206.255112,114.477501 204.961502,115.453369 
	C206.670151,117.889252 208.129486,119.969704 209.671417,122.501831 
	C210.169159,127.344124 210.618912,131.731812 210.989624,136.126160 
	C211.355118,140.458649 213.229492,142.890442 218.379883,141.958832 
	C220.182251,141.978241 221.569275,141.966095 223.242889,142.164230 
	C225.272675,144.535217 224.876251,148.990601 229.695831,148.284866 
	C230.500961,149.635590 231.170319,150.699020 231.499237,152.045715 
	C231.105865,158.552673 231.052933,164.776337 231.000000,171.000000 
	C224.645599,171.000000 218.291214,171.000000 211.473907,170.588470 
	C208.982300,169.069489 206.953598,167.962067 204.504807,166.625320 
	C204.110031,164.938278 203.536911,162.489059 203.000366,159.691010 
	C204.592026,155.915649 202.651505,153.855179 200.059601,151.609711 
	C199.005814,147.126968 198.062469,143.040634 197.115448,138.728394 
	C197.111771,138.502502 196.961884,138.075867 196.962128,137.603027 
	C196.961731,132.830551 197.180649,128.512161 196.816223,124.243568 
	C196.716995,123.081299 194.896667,121.176285 193.805511,121.132721 
	C186.705826,120.849274 179.588379,121.053490 172.478989,120.947395 
	C169.909714,120.909042 168.943604,121.875259 168.999649,124.436195 
	C169.097275,128.897232 168.962860,133.363358 168.889954,137.920288 
	C168.854202,138.013214 169.019440,138.124359 168.796600,138.073410 
	C168.573761,138.022461 168.116928,138.046356 167.786530,138.288681 
	C167.769958,143.588531 168.045990,148.648788 168.410675,153.702637 
	C168.658844,157.142059 170.423126,158.515198 173.985153,158.087234 
	C175.630768,157.889511 177.399048,158.712708 179.085052,159.464783 
	C178.928909,161.626190 178.799408,163.395859 178.673416,165.117401 
	C186.680878,167.501892 188.692184,166.087189 189.531616,158.001999 
	C191.939362,158.000732 193.941208,157.728592 195.832611,158.069412 
	C197.628433,158.393021 199.308685,159.358109 200.627884,160.043655 
	C194.191925,160.449951 198.410400,165.193115 196.773239,167.840240 
	C177.649902,167.840240 158.267075,167.840240 139.070038,167.556610 
	C140.507339,166.769287 141.758865,166.265610 143.285782,165.701233 
	C143.678101,165.094925 143.795044,164.549301 144.135071,163.782501 
	C141.396729,163.561340 138.435303,163.561340 135.531860,163.561340 
	C133.679352,158.499634 131.890915,153.613052 130.215332,148.356598 
	C129.530991,146.077469 128.948471,144.037094 127.882637,142.291916 
	C126.531822,140.080154 124.895760,137.824905 121.443634,139.850281 
	C120.888695,138.861725 120.230270,137.224625 120.437469,137.106552 
	C125.565125,134.184509 123.863541,131.068008 121.002457,127.573822 
	C122.194405,126.146790 123.231789,125.002258 124.166817,123.970642 
	C124.078720,124.002205 123.770729,124.217049 123.636993,124.137817 
	C123.389633,123.991234 123.236046,123.678253 123.057709,123.424522 
	C120.336075,119.552322 115.843811,118.318123 112.006104,120.390762 
	C109.231163,121.889420 107.769600,126.703087 109.099319,130.253326 
	C111.454979,133.369720 113.360100,136.229065 111.436584,140.133240 
	C107.788803,141.497116 104.305321,142.629379 103.482300,146.939453 
	C100.355057,146.158951 97.293488,144.308167 95.681335,148.980408 
	C94.596733,149.424683 93.804245,149.729462 92.969452,149.726135 
	C91.549408,148.564117 91.549408,148.564117 89.786057,152.041138 
	C89.359024,152.446091 89.167686,152.733490 88.988708,153.011017 
	C89.001076,153.001144 89.020462,152.976151 88.785248,153.080704 
	C88.359001,153.463409 88.167969,153.741562 87.988297,154.010117 
	C87.999657,154.000519 88.013794,153.974380 87.750748,154.135651 
	C87.319527,154.872482 87.151352,155.448059 86.993118,156.012726 
	C87.003044,156.001816 87.020668,155.978134 86.774788,156.066071 
	C86.346870,156.441147 86.164825,156.728287 85.990250,157.010010 
	C85.997726,157.004623 86.008377,156.989136 85.695435,157.258545 
	C85.150566,160.464447 84.918640,163.400925 84.636482,166.973389 
	C80.944435,167.313568 77.380234,167.758209 73.802971,167.928223 
	C71.637611,168.031143 69.675995,167.989899 70.000000,171.000000 
M33.427860,20.762424 
	C33.411976,20.402605 33.396095,20.042786 33.380215,19.682966 
	C33.249439,20.118820 33.118664,20.554676 32.704918,21.103979 
	C32.806404,21.073284 32.907887,21.042589 33.427860,20.762424 
M73.522690,24.975990 
	C73.784096,24.664715 74.045502,24.353439 74.306908,24.042162 
	C74.027588,23.904179 73.748260,23.766197 73.468941,23.628216 
	C73.306450,24.077185 73.143959,24.526154 72.502754,24.810486 
	C72.094650,24.869707 71.686554,24.928928 71.278450,24.988152 
	C71.325874,25.144444 71.405388,25.439592 71.416138,25.437107 
	C71.951813,25.313337 72.481613,25.164076 73.522690,24.975990 
M15.740924,56.225346 
	C15.542846,55.885967 15.344768,55.546593 15.935718,55.032921 
	C17.635330,54.669704 19.334942,54.306488 20.998569,53.959961 
	C20.998569,53.959961 20.994455,53.996952 21.643314,53.605442 
	C21.756006,52.079700 21.868696,50.553955 22.469955,49.184196 
	C22.857338,49.172733 23.244722,49.161266 23.632105,49.149799 
	C23.549711,48.904339 23.467316,48.658878 23.384922,48.413418 
	C22.912067,48.613091 22.439211,48.812763 21.502888,48.813576 
	C21.298559,48.551571 21.094229,48.289566 20.962288,47.410892 
	C20.792507,46.846092 20.622726,46.281296 20.452946,45.716496 
	C19.966270,46.430267 19.479595,47.144035 18.192190,48.005241 
	C17.107342,48.502056 16.022493,48.998871 14.964615,49.454010 
	C14.964615,49.454010 14.960742,49.404823 14.388399,49.356308 
	C14.223360,49.453373 14.058322,49.550434 13.667609,49.422932 
	C13.316757,49.437294 13.101191,49.630894 12.319075,49.983074 
	C11.443817,50.179520 10.568559,50.375965 9.693301,50.572411 
	C9.720204,50.849613 9.747107,51.126812 9.774010,51.404015 
	C10.817576,51.642624 11.861143,51.881233 12.961414,52.545494 
	C12.961414,52.545494 13.022749,52.970505 12.477109,53.097389 
	C12.622312,53.683548 12.767514,54.269703 13.409299,54.895039 
	C13.409299,54.895039 13.907255,54.882126 14.013046,54.956387 
	C14.013046,54.956387 14.038254,55.083164 14.052810,55.671917 
	C14.568237,56.103859 15.083665,56.535805 16.087294,57.432018 
	C16.754049,57.506771 17.420803,57.581524 18.087559,57.656281 
	C18.096312,57.503391 18.105064,57.350506 18.113817,57.197617 
	C17.361036,56.986889 16.608253,56.776157 15.740924,56.225346 
M277.343140,87.561813 
	C277.889099,87.349182 278.435059,87.136559 278.880707,86.413727 
	C278.604675,86.213165 278.328644,86.012596 278.286041,85.326256 
	C278.511261,84.840157 278.736511,84.354050 278.959686,83.494484 
	C278.959686,83.494484 278.948547,83.121178 278.989471,82.385872 
	C278.981750,81.895134 278.973999,81.404404 278.473999,80.255806 
	C275.753906,80.255806 273.033844,80.255806 270.112244,80.255806 
	C270.112244,82.027481 270.112244,83.470207 269.604095,85.456779 
	C266.553101,86.301758 267.234253,88.654633 266.770081,90.698067 
	C265.745331,89.922035 264.720612,89.146004 263.695862,88.369972 
	C263.362701,88.815460 263.029541,89.260948 262.696381,89.706436 
	C264.972382,91.449760 267.248413,93.193085 269.524414,94.936409 
	C269.896454,92.279976 275.653931,92.405151 273.559235,87.979492 
	C273.794586,87.680740 274.029938,87.381989 274.950928,87.039307 
	C275.636597,87.075089 276.322235,87.110870 277.343140,87.561813 
M258.020569,47.973301 
	C258.020569,47.973301 257.934265,48.053337 257.823120,47.409828 
	C256.870392,46.980072 255.917648,46.550312 254.325684,45.969364 
	C253.894470,46.023937 253.463272,46.078510 252.747223,45.510567 
	C251.096695,45.616657 249.292786,45.358662 247.853119,45.965233 
	C246.987976,46.329746 246.690811,48.042381 245.864944,49.697014 
	C247.288193,49.368954 248.036774,49.196407 249.143616,48.941280 
	C248.632660,50.626457 248.240585,51.919575 247.690781,53.732849 
	C249.559189,53.853176 251.140762,53.955032 252.950668,54.498520 
	C252.950668,54.498520 252.970734,54.995560 252.556564,55.346664 
	C254.057251,55.060524 255.557938,54.774380 257.719940,53.968853 
	C257.924927,52.337658 258.129913,50.706467 258.941711,49.064857 
	C259.495575,48.651798 260.049469,48.238739 260.603333,47.825684 
	C259.777771,47.857883 258.952209,47.890083 258.020569,47.973301 
M74.469536,17.650703 
	C74.738525,16.636648 75.007507,15.622593 75.276497,14.608538 
	C74.959061,14.520572 74.641624,14.432606 74.324181,14.344641 
	C73.875000,15.540058 73.425812,16.735476 72.369682,17.909906 
	C72.168808,17.884836 71.967941,17.859764 71.556747,17.139267 
	C71.770821,14.244246 70.658058,11.932446 67.582199,12.300713 
	C64.407272,12.680841 64.342865,15.430168 64.234779,17.978260 
	C63.701603,18.207460 63.168423,18.436659 62.635242,18.665855 
	C62.946274,19.012377 63.257301,19.358900 63.568333,19.705421 
	C64.030983,19.192570 64.493629,18.679718 65.801819,18.330507 
	C67.780968,18.165882 69.760109,18.001259 72.104187,18.322351 
	C72.725136,18.220285 73.346085,18.118219 74.469536,17.650703 
M26.650999,45.003166 
	C27.152319,44.506050 27.653639,44.008930 28.154959,43.511810 
	C27.704708,43.173992 27.254459,42.836170 26.804207,42.498352 
	C26.534210,43.329666 26.264214,44.160984 25.500469,44.813419 
	C25.097101,44.840950 24.693731,44.868481 24.290363,44.896011 
	C24.579248,45.373680 24.868132,45.851353 25.157015,46.329021 
	C25.439978,45.888027 25.722940,45.447037 26.650999,45.003166 
M60.020489,22.251175 
	C59.491261,21.206226 58.962032,20.161278 58.432804,19.116329 
	C58.060688,19.384501 57.688576,19.652672 57.316460,19.920845 
	C58.190308,20.962484 59.064152,22.004126 60.270126,23.623039 
	C61.582268,24.337744 62.894409,25.052448 64.206551,25.767155 
	C64.386101,25.304598 64.565651,24.842043 64.745201,24.379486 
	C63.187679,23.896406 61.630161,23.413328 60.020489,22.251175 
M26.384214,55.265247 
	C25.420130,56.284836 24.456043,57.304424 23.491959,58.324013 
	C24.012213,58.647396 24.532467,58.970776 25.052721,59.294155 
	C25.714363,57.874798 26.376007,56.455441 27.599699,54.942123 
	C27.916021,54.630180 28.232344,54.318237 28.548664,54.006294 
	C28.338522,53.822830 28.128378,53.639362 27.918234,53.455894 
	C27.600088,53.958042 27.281942,54.460190 26.384214,55.265247 
M33.365173,75.541473 
	C34.348061,75.914864 35.330948,76.288261 36.313835,76.661659 
	C36.406300,76.260239 36.498768,75.858818 36.591232,75.457397 
	C35.400211,75.298798 34.209190,75.140198 33.011154,74.239716 
	C33.012844,73.498566 33.014534,72.757408 33.712250,72.146431 
	C35.184132,72.742104 36.656010,73.337769 38.829292,73.751770 
	C39.837467,71.988556 41.855576,70.028625 41.561539,68.519058 
	C41.283615,67.092194 38.576473,66.138489 36.364765,65.043900 
	C35.250294,65.355675 34.135826,65.667450 33.027603,65.396896 
	C32.867519,64.871811 32.707439,64.346718 32.547352,63.821629 
	C32.258713,64.139420 31.675034,64.663055 31.729668,64.741364 
	C32.066124,65.223625 32.546627,65.605392 32.971169,66.871132 
	C32.976063,68.572762 32.980957,70.274399 32.454636,71.530029 
	C32.092243,70.130867 31.729849,68.731705 31.367455,67.332535 
	C30.827324,67.528358 30.287193,67.724182 29.747063,67.920006 
	C30.827713,70.285469 31.908361,72.650940 33.365173,75.541473 
M276.806274,31.017294 
	C279.820953,30.119532 279.820953,30.119532 278.600220,26.639837 
	C277.543762,28.365795 276.748718,29.664721 275.674286,31.099220 
	C275.794739,31.081177 275.915192,31.063133 276.806274,31.017294 
M283.368866,90.267708 
	C281.665009,91.862267 279.961121,93.456825 278.257233,95.051384 
	C281.763855,94.969727 284.101868,93.722641 284.609650,89.947670 
	C284.928467,89.632637 285.247284,89.317604 285.566071,89.002563 
	C285.354004,88.815948 285.141937,88.629341 284.929871,88.442734 
	C284.606171,88.947617 284.282471,89.452492 283.368866,90.267708 
M278.693298,16.128815 
	C279.504913,17.262924 280.316498,18.397036 281.128113,19.531145 
	C281.623901,19.209181 282.119720,18.887217 282.615509,18.565252 
	C281.083038,16.367706 279.550568,14.170159 277.664124,11.504936 
	C277.056061,11.413094 276.448029,11.321252 275.839966,11.229410 
	C275.815613,11.437149 275.791290,11.644889 275.766937,11.852628 
	C276.500977,11.912216 277.235046,11.971804 277.975159,12.823802 
	C277.980591,13.880319 277.986023,14.936834 277.455231,16.217188 
	C276.954346,16.791151 276.453461,17.365114 275.308380,17.849016 
	C274.193878,17.941757 273.079407,18.034498 271.501312,18.043062 
	C271.501312,18.043062 271.034180,17.981407 271.293762,17.203537 
	C271.134064,16.541046 270.974396,15.878557 270.814697,15.216067 
	C270.543152,15.258157 270.271576,15.300246 270.000000,15.342337 
	C269.958008,16.219719 269.915985,17.097099 269.433685,18.276079 
	C268.628418,19.178957 267.823151,20.081835 266.710968,21.422874 
	C266.563904,21.501280 266.422943,21.624075 266.268005,21.645447 
	C266.116821,21.666302 265.844269,21.627712 265.807983,21.539722 
	C265.122253,19.878061 264.463684,18.205194 263.799469,16.534658 
	C263.429443,16.690489 263.059418,16.846317 262.689362,17.002148 
	C262.814941,19.607861 262.940552,22.213575 263.122070,25.980093 
	C264.705353,25.324591 266.390900,24.626745 268.891052,23.949909 
	C270.258942,23.976473 271.626831,24.003038 273.366241,24.555529 
	C274.298889,24.991703 275.231567,25.427879 276.065308,25.817793 
	C276.065308,23.022150 276.065308,20.543253 276.695465,17.947458 
	C277.133148,17.301334 277.570862,16.655212 278.693298,16.128815 
M28.773973,18.529003 
	C28.798203,18.916563 28.822432,19.304125 28.846663,19.691685 
	C29.101437,19.604164 29.356209,19.516642 29.610983,19.429121 
	C29.421394,18.942778 29.231806,18.456432 29.422430,17.432693 
	C32.898533,14.347939 32.780903,12.696698 28.862131,9.567291 
	C25.496569,12.570285 25.516716,14.726415 28.773973,18.529003 
M53.007313,119.835632 
	C53.343647,122.945686 53.387695,126.131287 54.162342,129.128036 
	C54.465797,130.301956 56.337585,131.740707 57.615887,131.870621 
	C61.988201,132.315063 66.414139,132.231934 71.754898,132.237488 
	C75.200630,132.181351 78.646355,132.125229 82.875420,132.145752 
	C85.803810,132.051788 88.732201,131.957840 92.615623,131.941940 
	C93.613243,131.961075 94.610825,131.993713 95.608498,131.997147 
	C102.248680,132.019958 102.790909,131.216339 101.942444,124.460976 
	C101.120392,117.915840 100.410667,111.340729 100.054092,104.756973 
	C99.597237,96.321495 98.444893,95.004639 90.043694,94.156960 
	C89.993263,92.751495 89.942833,91.346031 89.964401,89.204796 
	C88.347885,84.805496 84.859795,82.712837 80.598839,83.585968 
	C76.108391,84.506142 74.012680,87.553207 74.049911,93.678787 
	C74.009949,94.113335 73.969994,94.547882 73.002022,94.995293 
	C68.746857,94.997475 64.450806,95.372360 60.246498,94.911011 
	C54.508457,94.281380 51.574169,96.564240 50.218357,102.066277 
	C48.577179,101.300552 46.936005,100.534836 45.518795,99.873604 
	C45.261524,101.487762 45.321472,103.309189 44.656685,104.809486 
	C43.404690,107.635002 44.286221,109.194321 46.536400,111.135918 
	C49.067554,113.319954 50.886311,116.329620 53.007313,119.835632 
M24.870350,108.368256 
	C26.935623,109.870209 28.918663,112.353859 31.094490,112.536125 
	C32.596733,112.661964 35.754158,109.541092 35.681473,107.987648 
	C35.578922,105.795921 33.174206,103.711914 31.887156,100.590927 
	C31.920647,97.275169 32.491688,93.837875 31.780106,90.690575 
	C31.372372,88.887177 29.096628,87.164902 27.253099,86.144928 
	C25.982021,85.441673 24.010601,85.992912 22.352285,86.002716 
	C10.737812,86.071381 12.044312,84.752419 12.009136,96.379097 
	C11.971840,108.707016 12.000735,108.707100 24.870350,108.368256 
M141.012314,108.793877 
	C141.007385,107.627838 140.998840,106.461792 140.998108,105.295753 
	C140.991043,94.000786 140.991425,94.000786 129.451828,94.001526 
	C121.001160,94.002068 121.001167,94.002068 121.001106,102.868469 
	C121.001015,115.929283 121.001007,115.929283 133.926300,116.728004 
	C136.057892,118.138931 138.092453,120.384026 140.357529,120.647530 
	C141.713608,120.805275 144.784454,117.760414 144.676575,116.337631 
	C144.502365,114.040283 142.342499,111.893509 141.012314,108.793877 
M84.991623,51.881908 
	C85.204994,57.012630 84.642342,62.322216 85.776016,67.240822 
	C89.294128,82.504745 103.446190,89.832718 116.067696,89.927994 
	C145.543701,90.150513 175.022537,90.000816 204.500229,89.998360 
	C219.509521,89.997116 229.851730,81.204636 232.091721,66.262611 
	C234.510330,50.129169 221.885712,36.850197 207.218903,37.114861 
	C202.793869,37.194706 200.962418,35.894897 199.608398,31.612322 
	C193.885513,13.511554 177.002090,2.187734 158.407562,2.230210 
	C144.320679,2.262389 132.044754,7.806365 123.457664,19.836275 
	C120.887733,23.436563 118.161095,26.428886 112.768852,26.462008 
	C108.691620,26.487047 104.245552,28.060808 100.638145,30.124422 
	C93.189896,34.385185 87.766357,40.723595 84.022896,49.021748 
	C66.099571,49.021748 48.176250,49.021748 30.252930,49.021748 
	C46.389133,50.001587 62.519135,49.967384 78.648613,50.043148 
	C80.759277,50.053059 82.867294,50.627277 84.991623,51.881908 
M212.613876,105.563065 
	C217.966949,105.954430 223.320007,106.345795 227.668884,106.663742 
	C226.947388,102.559113 226.128510,97.900406 225.288193,93.119781 
	C217.900772,93.119781 210.491882,93.119781 202.727646,93.119781 
	C202.593964,94.970345 202.393005,96.597359 202.373276,98.226555 
	C202.289932,105.102264 202.727036,105.521210 209.676239,105.561554 
	C210.341629,105.565414 211.007034,105.562225 212.613876,105.563065 
M149.526138,121.127846 
	C150.093399,122.892578 150.306854,124.892952 151.295364,126.377121 
	C154.071487,130.545288 158.819122,131.087616 162.495148,127.948746 
	C165.328796,125.529160 165.234528,120.968781 162.285385,117.801224 
	C158.010834,113.210091 155.911331,113.164772 151.922729,117.672577 
	C151.161179,118.533264 150.612747,119.582512 149.526138,121.127846 
M160.138550,144.623276 
	C163.221390,136.655319 163.221390,136.655319 160.428375,133.966568 
	C156.563324,143.910461 152.789398,153.619873 149.015488,163.329300 
	C149.552673,163.692719 150.089859,164.056152 150.627045,164.419571 
	C151.781906,162.990707 153.312393,161.725800 154.021133,160.102173 
	C156.136292,155.256378 157.929230,150.269943 160.138550,144.623276 
M280.275146,75.625221 
	C281.308594,76.593170 282.342010,77.561111 283.375458,78.529060 
	C283.744598,78.057159 284.113708,77.585258 284.482819,77.113350 
	C282.711395,75.660515 280.939941,74.207672 278.221893,71.978508 
	C278.387787,73.872864 278.345245,74.108597 278.423065,74.159195 
	C278.935364,74.492165 279.473541,74.785248 280.275146,75.625221 
M78.100693,12.342791 
	C78.197151,13.742566 78.293610,15.142343 78.390060,16.542118 
	C78.998466,16.388041 79.606865,16.233965 80.215263,16.079887 
	C79.643097,14.652664 79.070930,13.225442 78.100693,12.342791 
M23.630436,38.737560 
	C22.663557,38.220875 21.696680,37.704189 20.729801,37.187504 
	C20.564035,37.830521 20.398268,38.473534 20.232502,39.116550 
	C21.499689,39.116550 22.766876,39.116550 23.630436,38.737560 
M268.976257,31.000128 
	C268.602600,31.350264 268.228943,31.700401 267.855316,32.050545 
	C269.285736,32.261089 270.716156,32.471634 272.146576,32.682178 
	C272.183777,32.232403 272.220947,31.782625 272.258148,31.332850 
	C271.393402,31.218582 270.528656,31.104315 268.976257,31.000128 
M269.781494,27.009163 
	C269.377380,27.505430 268.973267,28.001699 268.569183,28.497972 
	C269.930115,28.497972 271.291016,28.497972 272.651947,28.497972 
	C272.650665,28.117968 272.649384,27.737961 272.648102,27.357956 
	C271.902313,27.233654 271.156525,27.109350 269.781494,27.009163 
M260.016388,24.706230 
	C258.920685,25.172115 257.824982,25.638000 256.729279,26.103886 
	C257.011230,26.562485 257.293182,27.021084 257.575134,27.479681 
	C258.536011,26.716663 259.496887,25.953644 260.016388,24.706230 
M263.758118,86.020691 
	C263.604034,85.174072 263.449982,84.327461 263.295929,83.480843 
	C262.831116,83.656494 262.366302,83.832146 261.901489,84.007797 
	C262.372528,84.835693 262.843536,85.663582 263.758118,86.020691 
M68.820480,2.133072 
	C68.009972,2.304699 67.199471,2.476325 66.388962,2.647952 
	C66.545509,3.061437 66.702057,3.474922 66.858597,3.888407 
	C67.664993,3.437187 68.471390,2.985967 68.820480,2.133072 
M69.220352,26.082026 
	C68.900070,25.496342 68.579781,24.910658 68.259499,24.324976 
	C67.880394,24.731773 67.501289,25.138571 67.122185,25.545368 
	C67.673637,25.861942 68.225082,26.178516 69.220352,26.082026 
M282.736542,59.896454 
	C282.245422,59.897144 281.754303,59.897835 281.263184,59.898529 
	C281.406525,60.442108 281.549835,60.985683 281.693176,61.529263 
	C282.083069,61.185673 282.472992,60.842083 282.736542,59.896454 
M11.326426,40.477039 
	C10.540629,40.769100 9.754834,41.061157 8.969039,41.353214 
	C9.182381,41.724010 9.395722,42.094803 9.609064,42.465595 
	C10.159501,41.993122 10.709938,41.520645 11.326426,40.477039 
M14.519990,59.589592 
	C13.648219,59.418400 12.776449,59.247204 11.904679,59.076012 
	C11.868297,59.393391 11.831913,59.710770 11.795530,60.028149 
	C12.733834,60.077534 13.672137,60.126915 14.519990,59.589592 
M61.775230,5.642198 
	C62.462704,5.154489 63.150181,4.666780 63.837654,4.179072 
	C63.585724,3.918589 63.333797,3.658106 63.081871,3.397624 
	C62.511257,4.017371 61.940639,4.637119 61.775230,5.642198 
M274.106750,96.142914 
	C274.026764,96.276909 273.894287,96.407532 273.885376,96.546104 
	C273.879517,96.636993 274.066040,96.833382 274.142975,96.822159 
	C274.966492,96.701988 275.785309,96.549797 276.605438,96.406387 
	C276.519348,96.138863 276.433289,95.871338 276.347198,95.603813 
	C275.773865,95.729340 275.200531,95.854858 274.106750,96.142914 
M6.790001,45.369690 
	C6.740483,45.730942 6.690965,46.092194 6.641447,46.453449 
	C6.899850,46.454636 7.158253,46.455822 7.416656,46.457005 
	C7.377821,46.094780 7.338986,45.732555 6.790001,45.369690 
M71.395111,4.206469 
	C71.753082,4.255333 72.111046,4.304198 72.469017,4.353063 
	C72.471756,4.096863 72.474495,3.840662 72.477234,3.584462 
	C72.118149,3.623832 71.759071,3.663201 71.395111,4.206469 
M271.799408,9.381326 
	C271.795563,9.782575 271.787811,10.184028 271.808777,10.583974 
	C271.809357,10.594692 272.265930,10.599997 272.266724,10.589549 
	C272.296814,10.189261 272.298431,9.786833 271.799408,9.381326 
M264.702332,31.574591 
	C264.991730,31.298353 265.281097,31.022118 265.570496,30.745876 
	C265.456024,30.626301 265.248352,30.396441 265.240540,30.403065 
	C264.935486,30.660852 264.648682,30.940199 264.702332,31.574591 
M260.293243,15.421732 
	C260.003540,15.636493 259.713806,15.851254 259.424103,16.066023 
	C259.600464,16.250790 259.776855,16.435556 259.953247,16.620323 
	C260.181610,16.340649 260.409973,16.060976 260.293243,15.421732 
M280.426300,22.713720 
	C280.701263,23.002623 280.973724,23.294205 281.265381,23.565170 
	C281.272858,23.572105 281.490845,23.352486 281.610657,23.238503 
	C281.334717,22.949287 281.058777,22.660070 280.426300,22.713720 
M6.792113,52.376774 
	C6.743969,52.734863 6.695826,53.092949 6.647682,53.451038 
	C6.903809,53.453506 7.159935,53.455971 7.416062,53.458439 
	C7.376557,53.099224 7.337051,52.740005 6.792113,52.376774 
M45.293377,69.393074 
	C44.995834,69.614960 44.698292,69.836838 44.400749,70.058723 
	C44.580700,70.248009 44.760651,70.437302 44.940594,70.626587 
	C45.175411,70.338768 45.410229,70.050949 45.293377,69.393074 
M264.590424,81.292427 
	C264.370880,80.994293 264.151337,80.696152 263.931793,80.398018 
	C263.740143,80.581482 263.548492,80.764946 263.356842,80.948410 
	C263.644531,81.182220 263.932190,81.416023 264.590424,81.292427 
M35.931423,17.481058 
	C35.782883,17.231583 35.634342,16.982107 35.485802,16.732630 
	C35.348110,16.990017 35.046272,17.310865 35.114937,17.488468 
	C35.197788,17.702770 35.594933,17.795557 35.931423,17.481058 
M77.151535,20.959452 
	C77.411430,20.804836 77.802582,20.701313 77.889038,20.479189 
	C77.956329,20.306316 77.644135,19.985731 77.500595,19.730793 
	C77.356621,19.986078 77.212654,20.241364 77.151535,20.959452 
M266.690247,72.953316 
	C266.925812,73.095856 267.161407,73.238388 267.396973,73.380928 
	C267.483917,73.138184 267.570862,72.895439 267.657776,72.652687 
	C267.308044,72.611641 266.958313,72.570595 266.690247,72.953316 
M43.839119,73.045578 
	C43.586491,73.197502 43.198620,73.301682 43.122925,73.516075 
	C43.059406,73.695961 43.359955,74.004395 43.499310,74.255913 
	C43.639107,74.004097 43.778904,73.752281 43.839119,73.045578 
M77.619637,9.473993 
	C77.836830,9.529483 78.054031,9.584972 78.271225,9.640464 
	C78.131538,9.503490 77.991852,9.366517 77.619637,9.473993 
M57.525032,11.615475 
	C57.469021,11.835238 57.413013,12.055002 57.357006,12.274768 
	C57.495289,12.133387 57.633575,11.992005 57.525032,11.615475 
M270.527954,73.595352 
	C270.468445,73.831680 270.408936,74.068001 270.349457,74.304337 
	C270.497986,74.151924 270.646484,73.999512 270.527954,73.595352 
M21.230986,60.180912 
	C21.407015,60.122421 21.583044,60.063931 21.759071,60.005432 
	C21.581739,59.948666 21.404408,59.891899 21.230986,60.180912 
M57.747269,17.189642 
	C57.628399,17.026745 57.509529,16.863848 57.390659,16.700949 
	C57.415257,16.928106 57.439850,17.155264 57.747269,17.189642 
M285.192749,80.241791 
	C285.026672,80.363945 284.860626,80.486099 284.694550,80.608261 
	C284.926697,80.582550 285.158844,80.556831 285.192749,80.241791 
M66.782097,21.794922 
	C66.589142,21.859343 66.396179,21.923763 66.203224,21.988186 
	C66.397675,22.051647 66.592117,22.115108 66.782097,21.794922 
M69.755829,22.207056 
	C69.628311,22.031906 69.500801,21.856756 69.373291,21.681604 
	C69.400185,21.928173 69.427078,22.174740 69.755829,22.207056 
M8.179430,55.759968 
	C8.122726,55.588882 8.066024,55.417793 8.009321,55.246708 
	C7.954053,55.418884 7.898785,55.591064 8.179430,55.759968 
M23.240744,54.177460 
	C23.409632,54.121365 23.578520,54.065266 23.747408,54.009171 
	C23.577673,53.954800 23.407936,53.900429 23.240744,54.177460 
M268.596313,25.518297 
	C268.596313,25.518297 268.476624,25.591778 268.596313,25.518297 
M263.604950,12.519167 
	C263.604950,12.519167 263.474518,12.601319 263.604950,12.519167 
M35.402882,12.481654 
	C35.402882,12.481654 35.524918,12.406647 35.402882,12.481654 
M58.402321,9.481286 
	C58.402321,9.481286 58.523838,9.406092 58.402321,9.481286 
M32.480675,7.597856 
	C32.480675,7.597856 32.405090,7.476170 32.480675,7.597856 
z"/>
<path fill="#BDE0FC" opacity="1.000000" stroke="none" 
	d="
M202.963776,160.039841 
	C203.536911,162.489059 204.110031,164.938278 204.504807,166.625320 
	C206.953598,167.962067 208.982300,169.069489 211.005508,170.588470 
	C164.312439,171.000000 117.624878,171.000000 70.468658,171.000000 
	C69.675995,167.989899 71.637611,168.031143 73.802971,167.928223 
	C77.380234,167.758209 80.944435,167.313568 84.636482,166.973389 
	C84.918640,163.400925 85.150566,160.464447 85.706680,157.714233 
	C86.025414,168.001678 86.068794,168.044510 96.497734,167.970291 
	C97.321930,167.964417 98.145920,167.928848 99.393852,167.935852 
	C102.519730,168.268692 103.009911,166.773788 103.085243,164.432922 
	C103.175941,161.614960 103.722656,158.811661 104.358719,156.101379 
	C104.776955,156.781815 104.908432,157.362869 104.995926,158.281677 
	C104.991325,159.070862 105.030724,159.522293 105.034821,160.301086 
	C105.336227,161.422226 105.672928,162.216019 105.994934,163.252136 
	C105.980240,163.494446 106.073975,163.970840 106.178467,164.316071 
	C107.827644,165.124771 109.372330,165.588226 110.949631,166.040253 
	C110.982254,166.028824 110.938553,166.082413 110.836319,166.386917 
	C111.163376,167.095230 111.592667,167.499039 112.277008,167.911163 
	C112.697250,167.878784 112.862434,167.838074 113.258514,167.810425 
	C113.489426,167.823486 113.929871,167.682236 114.397034,167.755981 
	C122.870888,167.833237 130.877563,167.836731 138.884247,167.840240 
	C158.267075,167.840240 177.649902,167.840240 196.773239,167.840240 
	C198.410400,165.193115 194.191925,160.449951 200.948227,160.048126 
	C202.108215,160.046646 202.535995,160.043243 202.963776,160.039841 
z"/>
<path fill="#882C7B" opacity="1.000000" stroke="none" 
	d="
M231.468658,171.000000 
	C231.052933,164.776337 231.105865,158.552673 231.857300,152.078552 
	C233.030197,151.853668 233.504623,151.879272 234.189178,152.197159 
	C240.114075,155.743011 245.630371,159.443314 251.610245,162.100266 
	C255.924149,164.016968 257.875854,166.403015 257.000000,171.000000 
	C248.645767,171.000000 240.291534,171.000000 231.468658,171.000000 
z"/>
<path fill="#7A1F70" opacity="1.000000" stroke="none" 
	d="
M257.250000,171.000000 
	C257.875854,166.403015 255.924149,164.016968 251.610245,162.100266 
	C245.630371,159.443314 240.114075,155.743011 234.628510,152.202728 
	C239.114746,151.049606 242.429382,152.839172 245.887268,155.154236 
	C249.422760,157.521240 252.758972,161.468506 257.953552,159.030441 
	C258.002594,162.715012 258.051605,166.399582 258.050293,170.542084 
	C258.000000,171.000000 257.500000,171.000000 257.250000,171.000000 
z"/>
<path fill="#F6F9FC" opacity="1.000000" stroke="none" 
	d="
M298.000000,61.625000 
	C296.748138,62.158905 295.496246,62.317810 294.022156,62.209251 
	C294.120331,61.522022 294.440674,61.102257 294.808472,60.088379 
	C294.819000,59.098648 294.782043,58.703033 294.526550,58.121574 
	C294.221558,57.765114 294.135132,57.594490 294.048676,57.423870 
	C295.083038,57.906780 296.117432,58.389687 297.575897,58.936295 
	C298.000000,59.750000 298.000000,60.500000 298.000000,61.625000 
z"/>
<path fill="#EDF6FE" opacity="1.000000" stroke="none" 
	d="
M84.950058,49.027096 
	C87.766357,40.723595 93.189896,34.385185 100.638145,30.124422 
	C104.245552,28.060808 108.691620,26.487047 112.768852,26.462008 
	C118.161095,26.428886 120.887733,23.436563 123.457664,19.836275 
	C132.044754,7.806365 144.320679,2.262389 158.407562,2.230210 
	C177.002090,2.187734 193.885513,13.511554 199.608398,31.612322 
	C200.962418,35.894897 202.793869,37.194706 207.218903,37.114861 
	C221.885712,36.850197 234.510330,50.129169 232.091721,66.262611 
	C229.851730,81.204636 219.509521,89.997116 204.500229,89.998360 
	C175.022537,90.000816 145.543701,90.150513 116.067696,89.927994 
	C103.446190,89.832718 89.294128,82.504745 85.776016,67.240822 
	C84.642342,62.322216 85.204994,57.012630 84.985046,51.092728 
	C84.969009,49.878067 84.959534,49.452579 84.950058,49.027096 
M141.235825,43.883137 
	C140.251099,43.826462 139.266510,43.724545 138.281601,43.721310 
	C134.866577,43.710102 132.820160,45.448605 133.274292,48.838699 
	C133.718170,52.152271 136.355759,52.774361 139.284470,52.186798 
	C140.529312,51.937061 141.733337,51.483753 143.252716,51.746613 
	C143.920273,51.564751 145.169968,51.380009 145.169083,51.201447 
	C145.152817,47.914124 145.378967,44.541420 144.683884,41.377911 
	C144.347229,39.845680 142.388626,37.894276 140.868500,37.584515 
	C138.738815,37.150555 136.333084,38.071274 134.045441,38.412483 
	C134.134399,38.838032 134.223373,39.263577 134.312332,39.689125 
	C141.638397,39.435604 141.638397,39.435604 141.235825,43.883137 
M146.051392,65.530312 
	C156.790939,68.299355 166.759308,66.806152 175.862213,60.077644 
	C161.288818,64.809761 146.974228,64.639038 132.934204,57.483990 
	C132.779327,58.105480 132.624435,58.726971 132.469543,59.348465 
	C136.742874,61.315681 141.016205,63.282902 146.051392,65.530312 
M175.458054,52.175663 
	C179.601547,49.283405 179.790436,46.500587 176.123917,44.383522 
	C174.338577,43.352661 172.777985,41.932526 171.115662,40.688599 
	C173.219788,40.371971 175.326843,40.072300 177.422623,39.707691 
	C177.597321,39.677299 177.695770,39.208729 177.819382,38.938553 
	C173.888000,36.486069 169.707565,36.759335 168.598389,39.841358 
	C167.028900,44.202362 170.486069,45.027184 173.492111,46.202648 
	C174.574982,46.626083 175.367203,47.792839 177.445557,49.652500 
	C173.150803,50.043728 170.525055,50.282917 167.899307,50.522106 
	C167.867859,50.992077 167.836395,51.462051 167.804947,51.932022 
	C170.101746,52.069023 172.398529,52.206024 175.458054,52.175663 
M157.222656,38.467186 
	C155.448929,41.404636 153.675186,44.342087 152.019241,47.084465 
	C150.017853,44.788002 151.765076,39.687859 146.692581,38.242615 
	C148.157913,42.925503 149.623260,47.608391 151.088593,52.291275 
	C151.723038,52.332996 152.357483,52.374714 152.991928,52.416431 
	C154.139053,49.192047 155.286163,45.967667 156.492233,42.577610 
	C157.111862,42.965359 157.966385,43.500088 159.855347,44.682133 
	C158.860382,41.994659 158.264023,40.383869 157.222656,38.467186 
z"/>
<path fill="#FED434" opacity="1.000000" stroke="none" 
	d="
M82.092087,132.069107 
	C78.646355,132.125229 75.200630,132.181351 71.240578,131.947510 
	C69.892021,129.390686 69.057785,127.123848 68.188141,124.443649 
	C68.141525,122.587654 67.783073,121.039703 68.182793,119.721703 
	C69.497177,115.387733 67.426704,114.570656 63.600273,114.829529 
	C64.727753,112.264198 66.046867,109.959427 67.630661,107.454880 
	C70.623566,106.458862 73.351791,105.662613 76.051987,105.253059 
	C77.369164,109.717049 80.834984,109.489380 83.778809,108.727837 
	C85.008179,108.409805 85.634033,105.758835 87.027824,103.296829 
	C87.360161,103.362160 88.701157,103.625755 90.416748,103.966751 
	C96.022736,106.022049 93.765800,110.274651 93.392380,113.852936 
	C91.282501,113.599556 89.547638,113.334442 87.503746,113.022102 
	C85.641563,119.576286 83.866829,125.822701 82.092087,132.069107 
z"/>
<path fill="#15427E" opacity="1.000000" stroke="none" 
	d="
M197.119110,138.954300 
	C198.062469,143.040634 199.005814,147.126968 199.990662,151.859955 
	C199.992874,152.675171 199.953583,152.843735 199.710571,153.091858 
	C199.249527,153.341019 199.087433,153.576263 198.555145,153.946381 
	C189.382965,153.962143 180.676224,153.908630 171.893295,153.705353 
	C171.560150,153.638199 171.303207,153.720810 170.651764,153.710449 
	C169.578751,148.725632 168.900253,143.833786 168.390533,138.842896 
	C168.780258,138.587555 168.933640,138.381042 169.019440,138.124359 
	C169.019440,138.124359 168.854202,138.013214 169.278473,137.981186 
	C170.485413,137.893967 171.268051,137.838776 172.511017,137.850708 
	C179.963913,137.873291 186.956512,137.828735 194.297211,137.854523 
	C195.110352,138.001785 195.575378,138.078720 196.166840,138.350342 
	C196.535492,138.748169 196.810776,138.884583 197.119110,138.954300 
z"/>
<path fill="#17437D" opacity="1.000000" stroke="none" 
	d="
M105.039909,157.943939 
	C104.908432,157.362869 104.776955,156.781815 104.284927,155.654419 
	C103.900436,152.400589 103.876495,149.693069 103.852554,146.985550 
	C104.305321,142.629379 107.788803,141.497116 111.546066,140.467667 
	C117.334908,144.562424 119.916245,144.337524 121.743454,139.909470 
	C124.895760,137.824905 126.531822,140.080154 127.882637,142.291916 
	C128.948471,144.037094 129.530991,146.077469 129.860321,148.576538 
	C129.113144,152.660812 128.589218,156.159363 128.647812,159.648132 
	C128.682022,161.684753 128.970062,163.223465 125.953644,162.725357 
	C124.800400,162.431122 123.925011,162.324478 122.786530,162.136780 
	C122.342003,162.083389 122.160576,162.111038 121.682625,161.990494 
	C120.226837,161.389557 119.067566,160.936829 117.865715,160.092987 
	C116.669769,157.346115 115.516403,154.990356 114.494270,152.902649 
	C110.937469,154.799225 107.988686,156.371582 105.039909,157.943939 
z"/>
<path fill="#ECF6FF" opacity="1.000000" stroke="none" 
	d="
M133.682480,116.020500 
	C121.001007,115.929283 121.001015,115.929283 121.001106,102.868469 
	C121.001167,94.002068 121.001160,94.002068 129.451828,94.001526 
	C140.991425,94.000786 140.991043,94.000786 140.998108,105.295753 
	C140.998840,106.461792 141.007385,107.627838 140.607086,109.256409 
	C135.854218,109.569778 133.745407,111.736839 133.682480,116.020500 
z"/>
<path fill="#ECF6FF" opacity="1.000000" stroke="none" 
	d="
M24.582199,107.754204 
	C12.000735,108.707100 11.971840,108.707016 12.009136,96.379097 
	C12.044312,84.752419 10.737812,86.071381 22.352285,86.002716 
	C24.010601,85.992912 25.982021,85.441673 27.253099,86.144928 
	C29.096628,87.164902 31.372372,88.887177 31.780106,90.690575 
	C32.491688,93.837875 31.920647,97.275169 31.467625,101.074677 
	C26.575951,101.205833 24.979979,103.854805 24.582199,107.754204 
z"/>
<path fill="#EEF6FC" opacity="1.000000" stroke="none" 
	d="
M93.767395,113.841187 
	C93.765800,110.274651 96.022736,106.022049 90.348404,103.662048 
	C89.971436,100.520531 90.037415,97.761124 90.103394,95.001709 
	C98.444893,95.004639 99.597237,96.321495 100.054092,104.756973 
	C100.410667,111.340729 101.120392,117.915840 101.942444,124.460976 
	C102.790909,131.216339 102.248680,132.019958 95.608498,131.997147 
	C94.610825,131.993713 93.613243,131.961075 92.031769,131.540924 
	C92.221069,125.373657 92.994232,119.607422 93.767395,113.841187 
z"/>
<path fill="#FFD733" opacity="1.000000" stroke="none" 
	d="
M212.143158,105.562683 
	C211.007034,105.562225 210.341629,105.565414 209.676239,105.561554 
	C202.727036,105.521210 202.289932,105.102264 202.373276,98.226555 
	C202.393005,96.597359 202.593964,94.970345 202.727646,93.119781 
	C210.491882,93.119781 217.900772,93.119781 225.288193,93.119781 
	C226.128510,97.900406 226.947388,102.559113 227.668884,106.663742 
	C223.320007,106.345795 217.966949,105.954430 212.143158,105.562683 
z"/>
<path fill="#EDF4FB" opacity="1.000000" stroke="none" 
	d="
M67.365982,107.654655 
	C66.046867,109.959427 64.727753,112.264198 63.477432,115.113480 
	C62.822369,117.509109 61.975731,118.453171 60.134003,116.564484 
	C57.532635,113.896782 54.780724,111.375885 52.066448,108.413300 
	C51.675861,106.074883 51.311996,104.115417 50.948132,102.155945 
	C51.574169,96.564240 54.508457,94.281380 60.246498,94.911011 
	C64.450806,95.372360 68.746857,94.997475 73.425934,95.332764 
	C71.688553,99.665047 69.527267,103.659851 67.365982,107.654655 
z"/>
<path fill="#F9A88E" opacity="1.000000" stroke="none" 
	d="
M126.231506,162.912933 
	C128.970062,163.223465 128.682022,161.684753 128.647812,159.648132 
	C128.589218,156.159363 129.113144,152.660812 129.747467,148.946411 
	C131.890915,153.613052 133.679352,158.499634 135.531860,163.561340 
	C138.435303,163.561340 141.396729,163.561340 143.924805,163.935928 
	C143.331085,164.794312 143.170731,165.278122 143.010376,165.761932 
	C141.758865,166.265610 140.507339,166.769287 139.070038,167.556610 
	C130.877563,167.836731 122.870888,167.833237 114.297394,167.645020 
	C113.408379,167.344788 113.174057,167.457138 113.027611,167.797363 
	C112.862434,167.838074 112.697250,167.878784 112.248138,167.625702 
	C111.622330,166.915405 111.280441,166.498917 110.938553,166.082413 
	C110.938553,166.082413 110.982254,166.028824 110.814377,165.708191 
	C109.122314,164.915314 107.598145,164.443085 106.073975,163.970840 
	C106.073975,163.970840 105.980240,163.494446 106.308449,163.208984 
	C108.086113,161.256134 107.824654,160.763809 105.070114,159.973740 
	C105.030724,159.522293 104.991325,159.070862 104.995926,158.281677 
	C107.988686,156.371582 110.937469,154.799225 114.494270,152.902649 
	C115.516403,154.990356 116.669769,157.346115 117.951828,160.387070 
	C119.380058,161.427734 120.679604,161.783218 121.979141,162.138702 
	C122.160576,162.111038 122.342003,162.083389 123.033707,162.367661 
	C124.439812,162.757370 125.335663,162.835144 126.231506,162.912933 
z"/>
<path fill="#892E7C" opacity="1.000000" stroke="none" 
	d="
M235.594101,129.161087 
	C236.455902,129.129410 237.317719,129.097717 238.588470,129.428711 
	C242.160965,134.164429 244.243881,134.208908 249.167450,130.008575 
	C257.610687,131.738861 260.501160,137.167938 258.923706,145.773239 
	C256.386566,146.284409 254.273102,146.313339 252.116348,145.927979 
	C251.677490,143.612930 251.281891,141.712204 250.661362,138.730637 
	C249.588577,142.883987 248.811386,145.892960 247.680756,148.900909 
	C244.590179,147.304169 241.853043,145.708420 238.962097,143.753830 
	C237.736923,138.650345 236.665512,133.905716 235.594101,129.161087 
z"/>
<path fill="#FAA894" opacity="1.000000" stroke="none" 
	d="
M252.159622,146.342270 
	C254.273102,146.313339 256.386566,146.284409 258.964050,146.241852 
	C259.106964,150.308746 258.785919,154.389267 258.209198,158.750122 
	C252.758972,161.468506 249.422760,157.521240 245.887268,155.154236 
	C242.429382,152.839172 239.114746,151.049606 234.418396,151.910461 
	C233.504623,151.879272 233.030197,151.853668 232.197723,151.795258 
	C231.170319,150.699020 230.500961,149.635590 229.880920,148.039551 
	C229.930222,146.472900 229.930222,145.438873 229.930222,143.373901 
	C231.949188,144.278717 233.740082,144.764572 235.147003,145.781616 
	C237.630371,147.576752 238.669647,146.752777 239.115891,144.112686 
	C241.853043,145.708420 244.590179,147.304169 247.960175,149.040833 
	C249.781891,148.235245 250.970749,147.288757 252.159622,146.342270 
z"/>
<path fill="#E9F2FC" opacity="1.000000" stroke="none" 
	d="
M238.962097,143.753830 
	C238.669647,146.752777 237.630371,147.576752 235.147003,145.781616 
	C233.740082,144.764572 231.949188,144.278717 229.930222,143.373901 
	C229.930222,145.438873 229.930222,146.472900 229.745148,147.752258 
	C224.876251,148.990601 225.272675,144.535217 223.309204,141.760590 
	C222.395569,138.417572 221.702209,135.688492 221.008850,132.959412 
	C223.340179,131.978027 225.604874,130.755417 228.022797,130.087616 
	C230.159973,129.497345 232.467880,129.525284 235.147247,129.220688 
	C236.665512,133.905716 237.736923,138.650345 238.962097,143.753830 
z"/>
<path fill="#FFAE96" opacity="1.000000" stroke="none" 
	d="
M220.681320,132.844727 
	C221.702209,135.688492 222.395569,138.417572 223.022614,141.550308 
	C221.569275,141.966095 220.182251,141.978241 218.179840,141.692841 
	C215.711166,138.117325 213.549591,134.969208 212.098068,131.522064 
	C210.842834,128.541122 210.394058,125.220596 209.588806,122.050171 
	C208.129486,119.969704 206.670151,117.889252 204.961502,115.453369 
	C206.255112,114.477501 208.550552,112.745872 211.078796,110.838631 
	C214.050201,117.851929 217.201996,125.290993 220.681320,132.844727 
z"/>
<path fill="#EEF7FF" opacity="1.000000" stroke="none" 
	d="
M149.746063,120.836304 
	C150.612747,119.582512 151.161179,118.533264 151.922729,117.672577 
	C155.911331,113.164772 158.010834,113.210091 162.285385,117.801224 
	C165.234528,120.968781 165.328796,125.529160 162.495148,127.948746 
	C158.819122,131.087616 154.071487,130.545288 151.295364,126.377121 
	C150.306854,124.892952 150.093399,122.892578 149.746063,120.836304 
z"/>
<path fill="#F9A88E" opacity="1.000000" stroke="none" 
	d="
M90.073547,94.579330 
	C90.037415,97.761124 89.971436,100.520531 89.973801,103.584648 
	C88.701157,103.625755 87.360161,103.362160 87.027824,103.296829 
	C85.634033,105.758835 85.008179,108.409805 83.778809,108.727837 
	C80.834984,109.489380 77.369164,109.717049 76.272202,104.994537 
	C80.088951,101.328217 77.726326,97.474670 78.368645,93.987762 
	C82.472511,92.638802 86.182465,91.289680 89.892410,89.940567 
	C89.942833,91.346031 89.993263,92.751495 90.073547,94.579330 
z"/>
<path fill="#E4F1FD" opacity="1.000000" stroke="none" 
	d="
M168.221756,138.941925 
	C168.900253,143.833786 169.578751,148.725632 170.879181,153.783417 
	C171.501114,153.949341 171.969482,153.855133 171.969482,153.855133 
	C180.676224,153.908630 189.382965,153.962143 198.832977,153.970398 
	C199.688934,153.620880 199.801605,153.316605 199.914276,153.012314 
	C199.953583,152.843735 199.992874,152.675171 200.101105,152.256378 
	C202.651505,153.855179 204.592026,155.915649 203.000366,159.691010 
	C202.535995,160.043243 202.108215,160.046646 201.360092,160.045593 
	C199.308685,159.358109 197.628433,158.393021 195.832611,158.069412 
	C193.941208,157.728592 191.939362,158.000732 189.083130,158.006409 
	C185.157562,158.362839 182.134644,158.717941 179.111710,159.073029 
	C177.399048,158.712708 175.630768,157.889511 173.985153,158.087234 
	C170.423126,158.515198 168.658844,157.142059 168.410675,153.702637 
	C168.045990,148.648788 167.769958,143.588531 167.741119,138.520966 
	C168.026108,138.510941 168.221756,138.941925 168.221756,138.941925 
z"/>
<path fill="#7B2D0C" opacity="1.000000" stroke="none" 
	d="
M238.935745,117.190918 
	C238.685196,116.993141 238.233276,116.813026 238.214127,116.594925 
	C237.897263,112.986511 230.346558,109.334976 237.165237,105.988960 
	C245.030487,102.129372 253.693100,106.281952 255.160217,113.823685 
	C250.115982,113.264809 245.483887,110.689514 241.676849,115.922073 
	C240.540955,116.397888 239.738358,116.794403 238.935745,117.190918 
z"/>
<path fill="#C1E2FD" opacity="1.000000" stroke="none" 
	d="
M172.050705,137.783585 
	C171.268051,137.838776 170.485413,137.893967 169.314240,137.888245 
	C168.962860,133.363358 169.097275,128.897232 168.999649,124.436195 
	C168.943604,121.875259 169.909714,120.909042 172.478989,120.947395 
	C179.588379,121.053490 186.705826,120.849274 193.805511,121.132721 
	C194.896667,121.176285 196.716995,123.081299 196.816223,124.243568 
	C197.180649,128.512161 196.961731,132.830551 196.729401,137.595612 
	C196.496414,138.061035 196.040421,138.155655 196.040421,138.155640 
	C195.575378,138.078720 195.110352,138.001785 194.307404,137.402664 
	C193.972610,133.729355 193.874130,130.573807 194.010483,127.428467 
	C194.122833,124.836342 193.060059,123.888283 190.504715,123.951584 
	C185.698029,124.070656 180.876999,124.165771 176.079712,123.921562 
	C172.633942,123.746155 171.774948,125.241203 171.974228,128.333221 
	C172.176498,131.471954 172.039261,134.632553 172.050705,137.783585 
z"/>
<path fill="#FCAD95" opacity="1.000000" stroke="none" 
	d="
M238.877869,117.534004 
	C239.738358,116.794403 240.540955,116.397888 242.041702,116.034927 
	C245.228470,116.992012 247.717117,117.915543 250.223190,118.845535 
	C249.769867,120.367790 249.347565,121.785851 248.925262,123.203911 
	C248.894363,125.255226 248.863464,127.306534 249.000000,129.683212 
	C244.243881,134.208908 242.160965,134.164429 238.911072,129.467270 
	C239.639694,128.365005 240.454681,127.586868 241.328705,126.752373 
	C235.535355,124.273438 234.753494,121.302299 238.877869,117.534004 
z"/>
<path fill="#FCFEFF" opacity="1.000000" stroke="none" 
	d="
M98.970001,167.907089 
	C98.145920,167.928848 97.321930,167.964417 96.497734,167.970291 
	C86.068794,168.044510 86.025414,168.001678 86.019623,157.444824 
	C86.008377,156.989136 85.997726,157.004623 86.228394,156.912933 
	C86.646255,156.540207 86.833466,156.259171 87.020676,155.978134 
	C87.020668,155.978134 87.003044,156.001816 87.255585,155.850815 
	C87.676682,155.124664 87.845238,154.549530 88.013794,153.974380 
	C88.013794,153.974380 87.999657,154.000519 88.234207,153.919785 
	C88.652657,153.551407 88.836555,153.263779 89.020462,152.976151 
	C89.020462,152.976151 89.001076,153.001144 89.236862,152.911285 
	C89.655685,152.522156 89.838722,152.222870 90.021759,151.923569 
	C91.549408,148.564117 91.549408,148.564117 92.960396,150.129852 
	C93.232124,153.100281 91.827713,156.174561 95.900780,156.963120 
	C96.968445,160.878052 97.969223,164.392563 98.970001,167.907089 
z"/>
<path fill="#F9A992" opacity="1.000000" stroke="none" 
	d="
M121.443634,139.850281 
	C119.916245,144.337524 117.334908,144.562424 111.887253,140.424225 
	C113.360100,136.229065 111.454979,133.369720 109.385223,130.062744 
	C111.312721,129.781693 112.921921,130.086914 114.708710,130.425827 
	C115.940933,128.395676 117.186310,125.491867 120.847893,127.856308 
	C123.863541,131.068008 125.565125,134.184509 120.437469,137.106552 
	C120.230270,137.224625 120.888695,138.861725 121.443634,139.850281 
z"/>
<path fill="#FEAB91" opacity="1.000000" stroke="none" 
	d="
M93.392380,113.852936 
	C92.994232,119.607422 92.221069,125.373657 91.554245,131.501892 
	C88.732201,131.957840 85.803810,132.051788 82.483757,132.107422 
	C83.866829,125.822701 85.641563,119.576286 87.503746,113.022102 
	C89.547638,113.334442 91.282501,113.599556 93.392380,113.852936 
z"/>
<path fill="#EEF7FF" opacity="1.000000" stroke="none" 
	d="
M99.393852,167.935852 
	C97.969223,164.392563 96.968445,160.878052 95.968460,156.657135 
	C97.116241,154.106476 98.263222,152.262177 99.521706,150.238602 
	C98.308502,149.760712 97.140976,149.300797 95.973450,148.840881 
	C97.293488,144.308167 100.355057,146.158951 103.482300,146.939453 
	C103.876495,149.693069 103.900436,152.400589 103.998169,155.555054 
	C103.722656,158.811661 103.175941,161.614960 103.085243,164.432922 
	C103.009911,166.773788 102.519730,168.268692 99.393852,167.935852 
z"/>
<path fill="#7D2C0B" opacity="1.000000" stroke="none" 
	d="
M89.928406,89.572678 
	C86.182465,91.289680 82.472511,92.638802 78.059784,93.853455 
	C76.279762,93.478737 75.202522,93.238495 74.125275,92.998253 
	C74.012680,87.553207 76.108391,84.506142 80.598839,83.585968 
	C84.859795,82.712837 88.347885,84.805496 89.928406,89.572678 
z"/>
<path fill="#7D3318" opacity="1.000000" stroke="none" 
	d="
M121.002457,127.573822 
	C117.186310,125.491867 115.940933,128.395676 114.708710,130.425827 
	C112.921921,130.086914 111.312721,129.781693 109.417618,129.667023 
	C107.769600,126.703087 109.231163,121.889420 112.006104,120.390762 
	C115.843811,118.318123 120.336075,119.552322 123.057709,123.424522 
	C123.236046,123.678253 123.389633,123.991234 123.636993,124.137817 
	C123.770729,124.217049 124.078720,124.002205 124.166817,123.970642 
	C123.231789,125.002258 122.194405,126.146790 121.002457,127.573822 
z"/>
<path fill="#BDE0FC" opacity="1.000000" stroke="none" 
	d="
M159.993286,144.980865 
	C157.929230,150.269943 156.136292,155.256378 154.021133,160.102173 
	C153.312393,161.725800 151.781906,162.990707 150.627045,164.419571 
	C150.089859,164.056152 149.552673,163.692719 149.015488,163.329300 
	C152.789398,153.619873 156.563324,143.910461 160.428375,133.966568 
	C163.221390,136.655319 163.221390,136.655319 159.993286,144.980865 
z"/>
<path fill="#0CBCC8" opacity="1.000000" stroke="none" 
	d="
M24.726274,108.061234 
	C24.979979,103.854805 26.575951,101.205833 31.400909,101.570137 
	C33.174206,103.711914 35.578922,105.795921 35.681473,107.987648 
	C35.754158,109.541092 32.596733,112.661964 31.094490,112.536125 
	C28.918663,112.353859 26.935623,109.870209 24.726274,108.061234 
z"/>
<path fill="#FDA48D" opacity="1.000000" stroke="none" 
	d="
M50.583244,102.111115 
	C51.311996,104.115417 51.675861,106.074883 52.041069,108.809708 
	C53.343540,112.684296 54.747093,115.745964 55.903309,118.898354 
	C56.496639,120.516037 56.648285,122.295715 56.732731,123.819214 
	C55.315601,122.084206 54.165283,120.532166 53.014965,118.980133 
	C50.886311,116.329620 49.067554,113.319954 46.536400,111.135918 
	C44.286221,109.194321 43.404690,107.635002 44.656685,104.809486 
	C45.321472,103.309189 45.261524,101.487762 45.518795,99.873604 
	C46.936005,100.534836 48.577179,101.300552 50.583244,102.111115 
z"/>
<path fill="#08BBC7" opacity="1.000000" stroke="none" 
	d="
M133.804382,116.374252 
	C133.745407,111.736839 135.854218,109.569778 140.611572,109.701035 
	C142.342499,111.893509 144.502365,114.040283 144.676575,116.337631 
	C144.784454,117.760414 141.713608,120.805275 140.357529,120.647530 
	C138.092453,120.384026 136.057892,118.138931 133.804382,116.374252 
z"/>
<path fill="#EDF4FB" opacity="1.000000" stroke="none" 
	d="
M53.011139,119.407883 
	C54.165283,120.532166 55.315601,122.084206 56.872849,124.129807 
	C62.743767,130.304367 63.866055,130.328339 68.223557,124.857010 
	C69.057785,127.123848 69.892021,129.390686 70.772942,132.003784 
	C66.414139,132.231934 61.988201,132.315063 57.615887,131.870621 
	C56.337585,131.740707 54.465797,130.301956 54.162342,129.128036 
	C53.387695,126.131287 53.343647,122.945686 53.011139,119.407883 
z"/>
<path fill="#7D2E0F" opacity="1.000000" stroke="none" 
	d="
M74.087593,93.338516 
	C75.202522,93.238495 76.279762,93.478737 77.665863,93.853287 
	C77.726326,97.474670 80.088951,101.328217 76.300232,104.607834 
	C73.351791,105.662613 70.623566,106.458862 67.630661,107.454880 
	C69.527267,103.659851 71.688553,99.665047 73.889938,95.326332 
	C73.969994,94.547882 74.009949,94.113335 74.087593,93.338516 
z"/>
<path fill="#346BA2" opacity="1.000000" stroke="none" 
	d="
M294.761017,60.682491 
	C294.440674,61.102257 294.120331,61.522022 293.564667,62.084469 
	C291.781769,63.121895 290.234192,64.016640 288.095825,64.795189 
	C286.679932,64.114807 285.854797,63.550617 285.029633,62.986431 
	C285.027710,55.239796 285.418274,54.983650 294.033234,57.257935 
	C294.135132,57.594490 294.221558,57.765114 294.039642,58.247608 
	C294.101196,59.267155 294.431091,59.974823 294.761017,60.682491 
z"/>
<path fill="#BDE0FC" opacity="1.000000" stroke="none" 
	d="
M179.085052,159.464783 
	C182.134644,158.717941 185.157562,158.362839 188.628983,158.003342 
	C188.692184,166.087189 186.680878,167.501892 178.673416,165.117401 
	C178.799408,163.395859 178.928909,161.626190 179.085052,159.464783 
z"/>
<path fill="#682B14" opacity="1.000000" stroke="none" 
	d="
M249.297058,123.132782 
	C249.347565,121.785851 249.769867,120.367790 250.223190,118.845535 
	C247.717117,117.915543 245.228470,116.992012 242.374969,115.955627 
	C245.483887,110.689514 250.115982,113.264809 254.896561,114.043152 
	C254.685837,117.882042 253.907150,121.564827 249.297058,123.132782 
z"/>
<path fill="#FFE9D7" opacity="1.000000" stroke="none" 
	d="
M84.486481,49.024422 
	C84.959534,49.452579 84.969009,49.878067 84.977509,50.621838 
	C82.867294,50.627277 80.759277,50.053059 78.648613,50.043148 
	C62.519135,49.967384 46.389133,50.001587 30.252930,49.021748 
	C48.176250,49.021748 66.099571,49.021748 84.486481,49.024422 
z"/>
<path fill="#DEE4EB" opacity="1.000000" stroke="none" 
	d="
M252.722321,54.056885 
	C251.140762,53.955032 249.559189,53.853176 247.690781,53.732849 
	C248.240585,51.919575 248.632660,50.626457 249.143616,48.941280 
	C248.036774,49.196407 247.288193,49.368954 245.864944,49.697014 
	C246.690811,48.042381 246.987976,46.329746 247.853119,45.965233 
	C249.292786,45.358662 251.096695,45.616657 252.890488,46.260098 
	C252.929932,49.358715 252.826126,51.707798 252.722321,54.056885 
z"/>
<path fill="#FA8C3E" opacity="1.000000" stroke="none" 
	d="
M36.937801,64.976662 
	C38.576473,66.138489 41.283615,67.092194 41.561539,68.519058 
	C41.855576,70.028625 39.837467,71.988556 38.286011,73.519241 
	C34.677773,70.787582 35.635990,67.898766 36.937801,64.976662 
z"/>
<path fill="#FEF7F3" opacity="1.000000" stroke="none" 
	d="
M273.008820,88.190331 
	C275.653931,92.405151 269.896454,92.279976 269.524414,94.936409 
	C267.248413,93.193085 264.972382,91.449760 262.696381,89.706436 
	C263.029541,89.260948 263.362701,88.815460 263.695862,88.369972 
	C264.720612,89.146004 265.745331,89.922035 267.445190,90.814156 
	C268.662842,90.654655 269.707886,90.238762 269.675751,90.123650 
	C268.260529,85.055229 270.956421,87.182480 273.008820,88.190331 
z"/>
<path fill="#FDA48D" opacity="1.000000" stroke="none" 
	d="
M209.671417,122.501846 
	C210.394058,125.220596 210.842834,128.541122 212.098068,131.522064 
	C213.549591,134.969208 215.711166,138.117325 217.764496,141.661285 
	C213.229492,142.890442 211.355118,140.458649 210.989624,136.126160 
	C210.618912,131.731812 210.169159,127.344124 209.671417,122.501846 
z"/>
<path fill="#F3F5F0" opacity="1.000000" stroke="none" 
	d="
M28.941322,18.042532 
	C25.516716,14.726415 25.496569,12.570285 28.862131,9.567291 
	C32.780903,12.696698 32.898533,14.347939 29.207096,17.719494 
	C28.991760,18.006294 28.941322,18.042532 28.941322,18.042532 
z"/>
<path fill="#8995A5" opacity="1.000000" stroke="none" 
	d="
M20.889898,48.027561 
	C21.094229,48.289566 21.298559,48.551571 21.749966,48.906761 
	C21.997046,48.999947 21.981386,49.028214 21.981386,49.028214 
	C21.868696,50.553955 21.756006,52.079700 21.097826,53.518585 
	C19.290472,53.326118 18.028606,53.220505 16.766741,53.114891 
	C16.755920,53.391018 16.745102,53.667149 16.734283,53.943275 
	C18.167706,53.943275 19.601130,53.943275 21.034554,53.943275 
	C19.334942,54.306488 17.635330,54.669704 15.264149,55.084770 
	C14.407804,55.118805 14.223029,55.100983 14.038254,55.083164 
	C14.038254,55.083164 14.013046,54.956387 14.003989,54.545784 
	C14.684983,53.163078 15.375034,52.190983 16.065086,51.218884 
	C15.641472,51.728001 15.217857,52.237118 14.794244,52.746235 
	C14.493923,51.713326 14.193604,50.680412 13.893284,49.647499 
	C14.058322,49.550434 14.223360,49.453373 15.004917,49.582260 
	C16.483038,49.758900 17.344641,49.709583 18.206244,49.660271 
	C18.177946,49.417599 18.149649,49.174931 18.121351,48.932262 
	C17.060116,49.120068 15.998880,49.307877 14.937645,49.495686 
	C16.022493,48.998871 17.107342,48.502056 18.905449,47.993370 
	C20.042439,47.996849 20.466167,48.012207 20.889898,48.027561 
M18.453226,51.455055 
	C19.048038,51.533752 19.642851,51.612450 20.237661,51.691147 
	C20.249180,51.565388 20.260698,51.439625 20.272215,51.313866 
	C19.812937,51.250317 19.353657,51.186771 18.453226,51.455055 
z"/>
<path fill="#FE8117" opacity="1.000000" stroke="none" 
	d="
M71.739258,17.836634 
	C69.760109,18.001259 67.780968,18.165882 65.388474,18.183163 
	C64.975136,18.035820 64.842758,18.038202 64.842758,18.038202 
	C64.342865,15.430168 64.407272,12.680841 67.582199,12.300713 
	C70.658058,11.932446 71.770821,14.244246 71.686378,17.519707 
	C71.816010,17.900146 71.739258,17.836634 71.739258,17.836634 
z"/>
<path fill="#90C0F3" opacity="1.000000" stroke="none" 
	d="
M95.681335,148.980408 
	C97.140976,149.300797 98.308502,149.760712 99.521706,150.238602 
	C98.263222,152.262177 97.116241,154.106476 95.901581,156.256744 
	C91.827713,156.174561 93.232124,153.100281 93.002701,150.437927 
	C93.804245,149.729462 94.596733,149.424683 95.681335,148.980408 
z"/>
<path fill="#F7F4F2" opacity="1.000000" stroke="none" 
	d="
M268.076447,23.928902 
	C266.390900,24.626745 264.705353,25.324591 263.122070,25.980093 
	C262.940552,22.213575 262.814941,19.607861 262.689362,17.002148 
	C263.059418,16.846317 263.429443,16.690489 263.799469,16.534658 
	C264.463684,18.205194 265.122253,19.878061 265.807983,21.539722 
	C265.844269,21.627712 266.116821,21.666302 266.268005,21.645447 
	C266.422943,21.624075 266.563904,21.501280 267.143738,21.238770 
	C267.743195,22.012743 267.909821,22.970821 268.076447,23.928902 
z"/>
<path fill="#F7F4F2" opacity="1.000000" stroke="none" 
	d="
M271.964905,18.127243 
	C273.079407,18.034498 274.193878,17.941757 275.657806,17.926636 
	C276.007233,18.004253 276.065308,18.064354 276.065308,18.064354 
	C276.065308,20.543253 276.065308,23.022150 276.065308,25.817793 
	C275.231567,25.427879 274.298889,24.991703 273.136353,23.915060 
	C272.592621,21.558807 272.278748,19.843025 271.964905,18.127243 
z"/>
<path fill="#F2E0D6" opacity="1.000000" stroke="none" 
	d="
M271.733093,18.085152 
	C272.278748,19.843025 272.592621,21.558807 272.950592,23.652098 
	C271.626831,24.003038 270.258942,23.976473 268.483765,23.939405 
	C267.909821,22.970821 267.743195,22.012743 267.297211,21.019688 
	C267.823151,20.081835 268.628418,19.178957 269.943848,18.166014 
	C270.647430,18.031099 270.840820,18.006252 271.034180,17.981407 
	C271.034180,17.981407 271.501312,18.043062 271.733093,18.085152 
z"/>
<path fill="#FAEFE8" opacity="1.000000" stroke="none" 
	d="
M36.651283,65.010284 
	C35.635990,67.898766 34.677773,70.787582 37.935310,73.610077 
	C36.656010,73.337769 35.184132,72.742104 33.355587,72.072296 
	C32.998924,71.998169 32.985851,71.976028 32.985851,71.976028 
	C32.980957,70.274399 32.976063,68.572762 32.985680,66.435493 
	C33.000187,65.999855 33.021355,65.979225 33.021355,65.979225 
	C34.135826,65.667450 35.250294,65.355675 36.651283,65.010284 
z"/>
<path fill="#5391CC" opacity="1.000000" stroke="none" 
	d="
M257.058624,54.488239 
	C255.557938,54.774380 254.057251,55.060524 253.157318,55.099922 
	C254.160339,51.942303 254.562637,49.031429 254.964920,46.120556 
	C255.917648,46.550312 256.870392,46.980072 257.589935,48.011009 
	C257.257385,50.570873 257.157990,52.529556 257.058624,54.488239 
z"/>
<path fill="#8995A5" opacity="1.000000" stroke="none" 
	d="
M278.948547,83.121178 
	C278.948547,83.121178 278.959686,83.494484 278.634399,83.740356 
	C277.872101,84.051666 277.435150,84.117111 276.600098,84.114037 
	C274.452667,84.313423 272.703339,84.581322 270.745239,84.887314 
	C270.536499,84.925407 270.112244,84.912941 270.112244,84.912941 
	C270.112244,83.470207 270.112244,82.027481 270.112244,80.255806 
	C273.033844,80.255806 275.753906,80.255806 278.391907,80.629700 
	C277.872620,81.063637 277.435394,81.123688 276.582520,81.112526 
	C274.515808,81.188042 272.864777,81.334770 271.213745,81.481491 
	C271.255859,81.926414 271.297974,82.371338 271.340057,82.816261 
	C273.226105,82.816261 275.112122,82.816261 277.320465,82.885025 
	C278.078033,83.009590 278.513275,83.065384 278.948547,83.121178 
z"/>
<path fill="#FE8117" opacity="1.000000" stroke="none" 
	d="
M269.858154,85.184860 
	C270.112244,84.912941 270.536499,84.925407 271.046570,85.038727 
	C272.352386,85.511108 273.148071,85.870178 273.987488,86.456558 
	C274.031189,86.683868 274.265320,87.083244 274.265320,87.083237 
	C274.029938,87.381989 273.794586,87.680740 273.284027,88.084915 
	C270.956421,87.182480 268.260529,85.055229 269.675751,90.123650 
	C269.707886,90.238762 268.662842,90.654655 267.779724,90.872665 
	C267.234253,88.654633 266.553101,86.301758 269.858154,85.184860 
z"/>
<path fill="#2A70B7" opacity="1.000000" stroke="none" 
	d="
M254.645294,46.044960 
	C254.562637,49.031429 254.160339,51.942303 253.364395,54.924370 
	C252.970734,54.995560 252.950668,54.498520 252.836487,54.277702 
	C252.826126,51.707798 252.929932,49.358715 253.032898,46.571358 
	C253.463272,46.078510 253.894470,46.023937 254.645294,46.044960 
z"/>
<path fill="#F6F9FC" opacity="1.000000" stroke="none" 
	d="
M284.695007,63.038246 
	C285.854797,63.550617 286.679932,64.114807 287.753937,64.849884 
	C286.917358,65.562561 285.831970,66.104340 284.746552,66.646118 
	C284.617828,65.460770 284.489105,64.275414 284.695007,63.038246 
z"/>
<path fill="#F7F4F2" opacity="1.000000" stroke="none" 
	d="
M278.018066,11.972614 
	C279.550568,14.170159 281.083038,16.367706 282.615509,18.565252 
	C282.119720,18.887217 281.623901,19.209181 281.128113,19.531145 
	C280.316498,18.397036 279.504913,17.262924 278.346741,16.064537 
	C278.000214,16.000257 277.991455,15.993351 277.991455,15.993351 
	C277.986023,14.936834 277.980591,13.880319 277.985474,12.413728 
	C277.995819,12.003654 278.018066,11.972616 278.018066,11.972614 
z"/>
<path fill="#FEF7F3" opacity="1.000000" stroke="none" 
	d="
M284.042664,90.041191 
	C284.101868,93.722641 281.763855,94.969727 278.257233,95.051384 
	C279.961121,93.456825 281.665009,91.862267 283.684570,90.133713 
	C284.000244,89.999725 284.042664,90.041191 284.042664,90.041191 
z"/>
<path fill="#FEF7F3" opacity="1.000000" stroke="none" 
	d="
M280.139221,75.358284 
	C279.473541,74.785248 278.935364,74.492165 278.423065,74.159195 
	C278.345245,74.108597 278.387787,73.872864 278.221893,71.978508 
	C280.939941,74.207672 282.711395,75.660515 284.482819,77.113350 
	C284.113708,77.585258 283.744598,78.057159 283.375458,78.529060 
	C282.342010,77.561111 281.308594,76.593170 280.139221,75.358284 
z"/>
<path fill="#F7F4F2" opacity="1.000000" stroke="none" 
	d="
M275.953644,30.963646 
	C276.748718,29.664721 277.543762,28.365795 278.600220,26.639837 
	C279.820953,30.119532 279.820953,30.119532 276.401886,31.009384 
	C275.997498,31.001474 275.953644,30.963648 275.953644,30.963646 
z"/>
<path fill="#FAEFE8" opacity="1.000000" stroke="none" 
	d="
M33.007572,72.007217 
	C33.014534,72.757408 33.012844,73.498566 33.006454,74.618965 
	C33.001755,74.998215 32.989010,75.016411 32.989010,75.016411 
	C31.908361,72.650940 30.827713,70.285469 29.747063,67.920006 
	C30.287193,67.724182 30.827324,67.528358 31.367455,67.332535 
	C31.729849,68.731705 32.092243,70.130867 32.720245,71.753029 
	C32.985851,71.976028 32.998924,71.998169 33.007572,72.007217 
z"/>
<path fill="#FEFAF7" opacity="1.000000" stroke="none" 
	d="
M78.299728,12.070505 
	C79.070930,13.225442 79.643097,14.652664 80.215263,16.079887 
	C79.606865,16.233965 78.998466,16.388041 78.390060,16.542118 
	C78.293610,15.142343 78.197151,13.742566 78.299728,12.070505 
z"/>
<path fill="#FEFAF7" opacity="1.000000" stroke="none" 
	d="
M23.832249,38.927055 
	C22.766876,39.116550 21.499689,39.116550 20.232502,39.116550 
	C20.398268,38.473534 20.564035,37.830521 20.729801,37.187504 
	C21.696680,37.704189 22.663557,38.220875 23.832249,38.927055 
z"/>
<path fill="#F7F4F2" opacity="1.000000" stroke="none" 
	d="
M269.320068,30.995087 
	C270.528656,31.104315 271.393402,31.218582 272.258148,31.332850 
	C272.220947,31.782625 272.183777,32.232403 272.146576,32.682178 
	C270.716156,32.471634 269.285736,32.261089 267.855316,32.050541 
	C268.228943,31.700401 268.602600,31.350264 269.320068,30.995087 
z"/>
<path fill="#F7F4F2" opacity="1.000000" stroke="none" 
	d="
M270.096130,26.997105 
	C271.156525,27.109350 271.902313,27.233654 272.648102,27.357956 
	C272.649384,27.737961 272.650665,28.117968 272.651947,28.497972 
	C271.291016,28.497972 269.930115,28.497972 268.569183,28.497971 
	C268.973267,28.001699 269.377380,27.505430 270.096130,26.997105 
z"/>
<path fill="#FEFAF7" opacity="1.000000" stroke="none" 
	d="
M27.037649,55.036083 
	C26.376007,56.455441 25.714363,57.874798 25.052721,59.294155 
	C24.532467,58.970776 24.012213,58.647396 23.491959,58.324013 
	C24.456043,57.304424 25.420130,56.284836 26.692215,55.132484 
	C27.000216,54.999722 27.037649,55.036083 27.037649,55.036083 
z"/>
<path fill="#F7F4F2" opacity="1.000000" stroke="none" 
	d="
M260.237061,24.948429 
	C259.496887,25.953644 258.536011,26.716663 257.575134,27.479681 
	C257.293182,27.021084 257.011230,26.562485 256.729279,26.103886 
	C257.824982,25.638000 258.920685,25.172115 260.237061,24.948429 
z"/>
<path fill="#FEFAF7" opacity="1.000000" stroke="none" 
	d="
M60.072643,22.930248 
	C61.630161,23.413328 63.187679,23.896406 64.745201,24.379486 
	C64.565651,24.842043 64.386101,25.304598 64.206551,25.767155 
	C62.894409,25.052448 61.582268,24.337744 60.138603,23.306549 
	C60.007080,22.990057 60.072643,22.930248 60.072643,22.930248 
z"/>
<path fill="#DEE4EB" opacity="1.000000" stroke="none" 
	d="
M13.780447,49.535217 
	C14.193604,50.680412 14.493923,51.713326 14.794244,52.746235 
	C15.217857,52.237118 15.641472,51.728001 16.065086,51.218884 
	C15.375034,52.190983 14.684983,53.163078 13.951094,54.508652 
	C13.907255,54.882126 13.409299,54.895039 13.186049,54.562771 
	C12.982782,53.810505 13.002766,53.390503 13.022749,52.970505 
	C13.022749,52.970505 12.961414,52.545494 12.970507,51.979313 
	C12.993369,50.943333 13.007138,50.473530 13.020907,50.003731 
	C13.101191,49.630894 13.316757,49.437294 13.780447,49.535217 
z"/>
<path fill="#FEF7F3" opacity="1.000000" stroke="none" 
	d="
M263.536346,86.256081 
	C262.843536,85.663582 262.372528,84.835693 261.901489,84.007797 
	C262.366302,83.832146 262.831116,83.656494 263.295929,83.480843 
	C263.449982,84.327461 263.604034,85.174072 263.536346,86.256081 
z"/>
<path fill="#FEFAF7" opacity="1.000000" stroke="none" 
	d="
M69.049133,2.333910 
	C68.471390,2.985967 67.664993,3.437187 66.858597,3.888407 
	C66.702057,3.474922 66.545509,3.061437 66.388962,2.647952 
	C67.199471,2.476325 68.009972,2.304699 69.049133,2.333910 
z"/>
<path fill="#FAEFE8" opacity="1.000000" stroke="none" 
	d="
M12.669991,49.993401 
	C13.007138,50.473530 12.993369,50.943333 12.942154,51.766487 
	C11.861143,51.881233 10.817576,51.642624 9.774010,51.404015 
	C9.747107,51.126812 9.720204,50.849613 9.693301,50.572411 
	C10.568559,50.375965 11.443817,50.179520 12.669991,49.993401 
z"/>
<path fill="#FEFAF7" opacity="1.000000" stroke="none" 
	d="
M25.994221,44.992302 
	C26.264214,44.160984 26.534210,43.329666 26.804207,42.498352 
	C27.254459,42.836170 27.704708,43.173992 28.154959,43.511810 
	C27.653639,44.008930 27.152319,44.506050 26.325451,45.001518 
	C25.999903,44.999874 25.994221,44.992302 25.994221,44.992302 
z"/>
<path fill="#F8F8F8" opacity="1.000000" stroke="none" 
	d="
M72.976624,17.930895 
	C73.425812,16.735476 73.875000,15.540058 74.324181,14.344641 
	C74.641624,14.432606 74.959061,14.520572 75.276497,14.608538 
	C75.007507,15.622593 74.738525,16.636648 73.970383,17.817646 
	C73.471237,17.984587 72.976624,17.930895 72.976624,17.930895 
z"/>
<path fill="#FEFAF7" opacity="1.000000" stroke="none" 
	d="
M68.998444,26.288559 
	C68.225082,26.178516 67.673637,25.861942 67.122185,25.545368 
	C67.501289,25.138571 67.880394,24.731773 68.259499,24.324974 
	C68.579781,24.910658 68.900070,25.496342 68.998444,26.288559 
z"/>
<path fill="#FEFAF7" opacity="1.000000" stroke="none" 
	d="
M59.972542,23.017912 
	C59.064152,22.004126 58.190308,20.962484 57.316460,19.920845 
	C57.688576,19.652672 58.060688,19.384501 58.432804,19.116329 
	C58.962032,20.161278 59.491261,21.206226 60.046566,22.590712 
	C60.072643,22.930248 60.007080,22.990057 59.972542,23.017912 
z"/>
<path fill="#F6F9FC" opacity="1.000000" stroke="none" 
	d="
M282.799713,60.197472 
	C282.472992,60.842083 282.083069,61.185673 281.693176,61.529259 
	C281.549835,60.985683 281.406525,60.442108 281.263184,59.898529 
	C281.754303,59.897835 282.245422,59.897144 282.799713,60.197472 
z"/>
<path fill="#2A70B7" opacity="1.000000" stroke="none" 
	d="
M257.389282,54.228546 
	C257.157990,52.529556 257.257385,50.570873 257.645508,48.332764 
	C257.934265,48.053337 258.020569,47.973301 258.073059,48.245464 
	C258.195282,48.703510 258.265076,48.889393 258.334900,49.075275 
	C258.129913,50.706467 257.924927,52.337658 257.389282,54.228546 
z"/>
<path fill="#FEFAF7" opacity="1.000000" stroke="none" 
	d="
M11.293400,40.762604 
	C10.709938,41.520645 10.159501,41.993122 9.609064,42.465595 
	C9.395722,42.094803 9.182381,41.724010 8.969039,41.353214 
	C9.754834,41.061157 10.540629,40.769100 11.293400,40.762604 
z"/>
<path fill="#FEFAF7" opacity="1.000000" stroke="none" 
	d="
M14.565216,59.882942 
	C13.672137,60.126915 12.733834,60.077534 11.795530,60.028149 
	C11.831913,59.710770 11.868297,59.393391 11.904679,59.076012 
	C12.776449,59.247204 13.648219,59.418400 14.565216,59.882942 
z"/>
<path fill="#FAEFE8" opacity="1.000000" stroke="none" 
	d="
M33.009964,74.989906 
	C34.209190,75.140198 35.400211,75.298798 36.591232,75.457397 
	C36.498768,75.858818 36.406300,76.260239 36.313835,76.661659 
	C35.330948,76.288261 34.348061,75.914864 33.177094,75.278946 
	C32.989010,75.016411 33.001755,74.998215 33.009964,74.989906 
z"/>
<path fill="#FEFAF7" opacity="1.000000" stroke="none" 
	d="
M61.572628,5.449532 
	C61.940639,4.637119 62.511257,4.017371 63.081871,3.397624 
	C63.333797,3.658106 63.585724,3.918589 63.837654,4.179072 
	C63.150181,4.666780 62.462704,5.154489 61.572628,5.449532 
z"/>
<path fill="#F2E0D6" opacity="1.000000" stroke="none" 
	d="
M64.965706,18.101343 
	C64.493629,18.679718 64.030983,19.192570 63.568333,19.705421 
	C63.257301,19.358900 62.946274,19.012377 62.635242,18.665855 
	C63.168423,18.436659 63.701603,18.207460 64.538773,18.008232 
	C64.842758,18.038202 64.975136,18.035820 64.965706,18.101343 
z"/>
<path fill="#BDE0FC" opacity="1.000000" stroke="none" 
	d="
M258.638306,49.070068 
	C258.265076,48.889393 258.195282,48.703510 258.126099,48.219955 
	C258.952209,47.890083 259.777771,47.857883 260.603333,47.825684 
	C260.049469,48.238739 259.495575,48.651798 258.638306,49.070068 
z"/>
<path fill="#FEF7F3" opacity="1.000000" stroke="none" 
	d="
M274.366974,96.061646 
	C275.200531,95.854858 275.773865,95.729340 276.347198,95.603813 
	C276.433289,95.871338 276.519348,96.138863 276.605438,96.406387 
	C275.785309,96.549797 274.966492,96.701988 274.142975,96.822159 
	C274.066040,96.833382 273.879517,96.636993 273.885376,96.546104 
	C273.894287,96.407532 274.026764,96.276909 274.366974,96.061646 
z"/>
<path fill="#FEFAF7" opacity="1.000000" stroke="none" 
	d="
M20.926094,47.719227 
	C20.466167,48.012207 20.042439,47.996849 19.305813,47.919651 
	C19.479595,47.144035 19.966270,46.430267 20.452946,45.716496 
	C20.622726,46.281296 20.792507,46.846092 20.926094,47.719227 
z"/>
<path fill="#8995A5" opacity="1.000000" stroke="none" 
	d="
M274.608124,87.061279 
	C274.265320,87.083244 274.031189,86.683868 274.365540,86.385773 
	C275.465332,86.010521 276.230774,85.933372 277.262054,85.887207 
	C277.702850,85.882805 277.877747,85.847420 278.052612,85.812042 
	C278.328644,86.012596 278.604675,86.213165 278.602295,86.712944 
	C277.885223,87.056992 277.446564,87.101822 277.007904,87.146652 
	C276.322235,87.110870 275.636597,87.075089 274.608124,87.061279 
z"/>
<path fill="#FEFAF7" opacity="1.000000" stroke="none" 
	d="
M26.002903,45.002960 
	C25.722940,45.447037 25.439978,45.888027 25.157015,46.329021 
	C24.868132,45.851353 24.579248,45.373680 24.290363,44.896011 
	C24.693731,44.868481 25.097101,44.840950 25.747345,44.902863 
	C25.994221,44.992302 25.999903,44.999874 26.002903,45.002960 
z"/>
<path fill="#FCFEFF" opacity="1.000000" stroke="none" 
	d="
M14.951130,49.474846 
	C15.998880,49.307877 17.060116,49.120068 18.121351,48.932262 
	C18.149649,49.174931 18.177946,49.417599 18.206244,49.660271 
	C17.344641,49.709583 16.483038,49.758900 15.291088,49.606522 
	C14.960742,49.404823 14.964615,49.454010 14.951130,49.474846 
z"/>
<path fill="#FEFAF7" opacity="1.000000" stroke="none" 
	d="
M7.045076,45.370010 
	C7.338986,45.732555 7.377821,46.094780 7.416656,46.457008 
	C7.158253,46.455822 6.899850,46.454636 6.641447,46.453445 
	C6.690965,46.092194 6.740483,45.730942 7.045076,45.370010 
z"/>
<path fill="#FAEFE8" opacity="1.000000" stroke="none" 
	d="
M32.989700,66.010223 
	C32.546627,65.605392 32.066124,65.223625 31.729668,64.741364 
	C31.675034,64.663055 32.258713,64.139420 32.547356,63.821629 
	C32.707439,64.346718 32.867519,64.871811 33.024479,65.688065 
	C33.021355,65.979225 33.000187,65.999855 32.989700,66.010223 
z"/>
<path fill="#FEFAF7" opacity="1.000000" stroke="none" 
	d="
M71.397552,3.954520 
	C71.759071,3.663201 72.118149,3.623832 72.477234,3.584462 
	C72.474495,3.840662 72.471756,4.096863 72.469017,4.353064 
	C72.111046,4.304198 71.753082,4.255333 71.397552,3.954520 
z"/>
<path fill="#F7F4F2" opacity="1.000000" stroke="none" 
	d="
M272.051636,9.383007 
	C272.298431,9.786833 272.296814,10.189261 272.266724,10.589549 
	C272.265930,10.599997 271.809357,10.594692 271.808777,10.583974 
	C271.787811,10.184028 271.795563,9.782575 272.051636,9.383007 
z"/>
<path fill="#F7F4F2" opacity="1.000000" stroke="none" 
	d="
M264.530884,31.395660 
	C264.648682,30.940199 264.935486,30.660852 265.240540,30.403065 
	C265.248352,30.396441 265.456024,30.626301 265.570496,30.745878 
	C265.281097,31.022118 264.991730,31.298353 264.530884,31.395660 
z"/>
<path fill="#F7F4F2" opacity="1.000000" stroke="none" 
	d="
M260.465759,15.601517 
	C260.409973,16.060976 260.181610,16.340649 259.953247,16.620323 
	C259.776855,16.435556 259.600464,16.250790 259.424103,16.066017 
	C259.713806,15.851254 260.003540,15.636493 260.465759,15.601517 
z"/>
<path fill="#F7F4F2" opacity="1.000000" stroke="none" 
	d="
M280.604553,22.542288 
	C281.058777,22.660070 281.334717,22.949287 281.610657,23.238506 
	C281.490845,23.352486 281.272858,23.572105 281.265381,23.565170 
	C280.973724,23.294205 280.701263,23.002623 280.604553,22.542288 
z"/>
<path fill="#FEFAF7" opacity="1.000000" stroke="none" 
	d="
M7.044829,52.378784 
	C7.337051,52.740005 7.376557,53.099224 7.416062,53.458439 
	C7.159935,53.455971 6.903809,53.453506 6.647682,53.451038 
	C6.695826,53.092949 6.743969,52.734863 7.044829,52.378784 
z"/>
<path fill="#FEF7F3" opacity="1.000000" stroke="none" 
	d="
M283.979492,89.978546 
	C284.282471,89.452492 284.606171,88.947617 284.929871,88.442734 
	C285.141937,88.629341 285.354004,88.815948 285.566071,89.002571 
	C285.247284,89.317604 284.928467,89.632637 284.326172,89.994431 
	C284.042664,90.041191 284.000244,89.999725 283.979492,89.978546 
z"/>
<path fill="#FAEFE8" opacity="1.000000" stroke="none" 
	d="
M45.469208,69.578110 
	C45.410229,70.050949 45.175411,70.338768 44.940598,70.626587 
	C44.760651,70.437302 44.580700,70.248009 44.400749,70.058723 
	C44.698292,69.836838 44.995834,69.614960 45.469208,69.578110 
z"/>
<path fill="#FEF7F3" opacity="1.000000" stroke="none" 
	d="
M264.405151,81.471130 
	C263.932190,81.416023 263.644531,81.182220 263.356842,80.948410 
	C263.548492,80.764946 263.740143,80.581482 263.931793,80.398018 
	C264.151337,80.696152 264.370880,80.994293 264.405151,81.471130 
z"/>
<path fill="#FEFAF7" opacity="1.000000" stroke="none" 
	d="
M26.982006,54.981030 
	C27.281942,54.460190 27.600088,53.958042 27.918234,53.455894 
	C28.128378,53.639362 28.338522,53.822830 28.548664,54.006294 
	C28.232344,54.318237 27.916021,54.630180 27.318674,54.989105 
	C27.037649,55.036083 27.000216,54.999722 26.982006,54.981030 
z"/>
<path fill="#FEF7F3" opacity="1.000000" stroke="none" 
	d="
M278.968994,82.753525 
	C278.513275,83.065384 278.078033,83.009590 277.321381,82.613014 
	C276.999390,81.909401 276.998779,81.546570 276.998169,81.183739 
	C277.435394,81.123688 277.872620,81.063637 278.638062,80.958633 
	C278.973999,81.404404 278.981750,81.895134 278.968994,82.753525 
z"/>
<path fill="#8995A5" opacity="1.000000" stroke="none" 
	d="
M271.163971,17.592472 
	C270.840820,18.006252 270.647430,18.031099 270.164001,18.015215 
	C269.915985,17.097099 269.958008,16.219719 270.000000,15.342337 
	C270.271576,15.300246 270.543152,15.258157 270.814697,15.216067 
	C270.974396,15.878557 271.134064,16.541046 271.163971,17.592472 
z"/>
<path fill="#F3F5F0" opacity="1.000000" stroke="none" 
	d="
M35.893730,17.711000 
	C35.594933,17.795557 35.197788,17.702770 35.114937,17.488468 
	C35.046272,17.310865 35.348110,16.990017 35.485802,16.732630 
	C35.634342,16.982107 35.782883,17.231583 35.893730,17.711000 
z"/>
<path fill="#F7F4F2" opacity="1.000000" stroke="none" 
	d="
M278.004395,16.004673 
	C277.570862,16.655212 277.133148,17.301334 276.380371,18.005905 
	C276.065308,18.064354 276.007233,18.004253 275.979919,17.971664 
	C276.453461,17.365114 276.954346,16.791151 277.723328,16.105270 
	C277.991455,15.993351 278.000214,16.000257 278.004395,16.004673 
z"/>
<path fill="#F3F5F0" opacity="1.000000" stroke="none" 
	d="
M29.016991,17.988190 
	C29.231806,18.456432 29.421394,18.942778 29.610983,19.429121 
	C29.356209,19.516642 29.101437,19.604164 28.846663,19.691685 
	C28.822432,19.304125 28.798203,18.916563 28.857647,18.285767 
	C28.941322,18.042532 28.991760,18.006294 29.016991,17.988190 
z"/>
<path fill="#F7F4F2" opacity="1.000000" stroke="none" 
	d="
M277.982452,12.017523 
	C277.235046,11.971804 276.500977,11.912216 275.766937,11.852628 
	C275.791290,11.644889 275.815613,11.437149 275.839966,11.229410 
	C276.448029,11.321252 277.056061,11.413094 277.841095,11.738776 
	C278.018066,11.972616 277.995819,12.003654 277.982452,12.017523 
z"/>
<path fill="#FEFAF7" opacity="1.000000" stroke="none" 
	d="
M77.110107,20.728050 
	C77.212654,20.241364 77.356621,19.986078 77.500595,19.730793 
	C77.644135,19.985731 77.956329,20.306316 77.889038,20.479189 
	C77.802582,20.701313 77.411430,20.804836 77.110107,20.728050 
z"/>
<path fill="#FEF7F3" opacity="1.000000" stroke="none" 
	d="
M266.649414,72.741432 
	C266.958313,72.570595 267.308044,72.611641 267.657776,72.652695 
	C267.570862,72.895439 267.483917,73.138184 267.396973,73.380920 
	C267.161407,73.238388 266.925812,73.095856 266.649414,72.741432 
z"/>
<path fill="#FFAE96" opacity="1.000000" stroke="none" 
	d="
M15.855471,56.565430 
	C16.608253,56.776157 17.361036,56.986889 18.113817,57.197617 
	C18.105064,57.350506 18.096312,57.503391 18.087559,57.656281 
	C17.420803,57.581524 16.754049,57.506771 15.996665,57.151672 
	C15.906036,56.871330 15.855472,56.565426 15.855471,56.565430 
z"/>
<path fill="#FEFAF7" opacity="1.000000" stroke="none" 
	d="
M72.981468,24.975122 
	C73.143959,24.526154 73.306450,24.077185 73.468941,23.628216 
	C73.748260,23.766197 74.027588,23.904179 74.306908,24.042162 
	C74.045502,24.353439 73.784096,24.664715 73.260040,24.986290 
	C72.997383,24.996592 72.981468,24.975122 72.981468,24.975122 
z"/>
<path fill="#FEFAF7" opacity="1.000000" stroke="none" 
	d="
M73.004715,25.007095 
	C72.481613,25.164076 71.951813,25.313337 71.416138,25.437107 
	C71.405388,25.439592 71.325874,25.144444 71.278450,24.988152 
	C71.686554,24.928928 72.094650,24.869707 72.742111,24.892803 
	C72.981468,24.975122 72.997383,24.996592 73.004715,25.007095 
z"/>
<path fill="#FAEFE8" opacity="1.000000" stroke="none" 
	d="
M14.045532,55.377541 
	C14.223029,55.100983 14.407804,55.118805 14.869635,55.171921 
	C15.344768,55.546593 15.542846,55.885967 15.798198,56.395386 
	C15.855472,56.565426 15.906036,56.871330 15.752563,56.919540 
	C15.083665,56.535805 14.568237,56.103859 14.045532,55.377541 
z"/>
<path fill="#FEF7F3" opacity="1.000000" stroke="none" 
	d="
M278.169312,85.569153 
	C277.877747,85.847420 277.702850,85.882805 277.263245,85.608429 
	C276.998413,84.926628 276.998291,84.554588 276.998169,84.182556 
	C277.435150,84.117111 277.872101,84.051666 278.635406,83.927086 
	C278.736511,84.354050 278.511261,84.840157 278.169312,85.569153 
z"/>
<path fill="#FAEFE8" opacity="1.000000" stroke="none" 
	d="
M43.878914,73.273026 
	C43.778904,73.752281 43.639107,74.004097 43.499313,74.255913 
	C43.359955,74.004395 43.059406,73.695961 43.122925,73.516075 
	C43.198620,73.301682 43.586491,73.197502 43.878914,73.273026 
z"/>
<path fill="#FEFAF7" opacity="1.000000" stroke="none" 
	d="
M21.981701,49.006187 
	C22.439211,48.812763 22.912067,48.613091 23.384922,48.413418 
	C23.467316,48.658878 23.549711,48.904339 23.632105,49.149803 
	C23.244722,49.161266 22.857338,49.172733 22.225670,49.106205 
	C21.981386,49.028214 21.997046,48.999947 21.981701,49.006187 
z"/>
<path fill="#FEFAF7" opacity="1.000000" stroke="none" 
	d="
M77.735901,9.351768 
	C77.991852,9.366517 78.131538,9.503490 78.271225,9.640463 
	C78.054031,9.584972 77.836830,9.529483 77.735901,9.351768 
z"/>
<path fill="#FEFAF7" opacity="1.000000" stroke="none" 
	d="
M57.648445,11.733049 
	C57.633575,11.992005 57.495289,12.133387 57.357006,12.274767 
	C57.413013,12.055002 57.469021,11.835238 57.648445,11.733049 
z"/>
<path fill="#F2A490" opacity="1.000000" stroke="none" 
	d="
M143.285767,165.701233 
	C143.170731,165.278122 143.331085,164.794312 143.701721,164.157104 
	C143.795044,164.549301 143.678101,165.094925 143.285767,165.701233 
z"/>
<path fill="#FEF7F3" opacity="1.000000" stroke="none" 
	d="
M270.661499,73.721222 
	C270.646484,73.999512 270.497986,74.151924 270.349426,74.304329 
	C270.408936,74.068001 270.468445,73.831680 270.661499,73.721222 
z"/>
<path fill="#BDE0FC" opacity="1.000000" stroke="none" 
	d="
M87.750748,154.135651 
	C87.845238,154.549530 87.676682,155.124664 87.245651,155.861725 
	C87.151352,155.448059 87.319527,154.872482 87.750748,154.135651 
z"/>
<path fill="#FEFAF7" opacity="1.000000" stroke="none" 
	d="
M21.229031,60.008022 
	C21.404408,59.891899 21.581739,59.948666 21.759071,60.005436 
	C21.583044,60.063931 21.407015,60.122421 21.229031,60.008022 
z"/>
<path fill="#FEFAF7" opacity="1.000000" stroke="none" 
	d="
M57.605858,17.286032 
	C57.439850,17.155264 57.415257,16.928106 57.390663,16.700949 
	C57.509529,16.863848 57.628399,17.026745 57.605858,17.286032 
z"/>
<path fill="#F2E0D6" opacity="1.000000" stroke="none" 
	d="
M72.673157,17.920401 
	C72.976624,17.930895 73.471237,17.984587 73.719131,18.000370 
	C73.346085,18.118219 72.725136,18.220285 71.921722,18.079493 
	C71.739258,17.836634 71.816010,17.900146 71.791534,17.867418 
	C71.967941,17.859764 72.168808,17.884836 72.673157,17.920401 
z"/>
<path fill="#F3F5F0" opacity="1.000000" stroke="none" 
	d="
M32.987888,20.990530 
	C33.118664,20.554676 33.249439,20.118820 33.380215,19.682966 
	C33.396095,20.042786 33.411976,20.402605 33.213890,20.881212 
	C32.999916,21.000000 32.987888,20.990530 32.987888,20.990530 
z"/>
<path fill="#FEF7F3" opacity="1.000000" stroke="none" 
	d="
M285.291870,80.386459 
	C285.158844,80.556831 284.926697,80.582550 284.694550,80.608261 
	C284.860626,80.486099 285.026672,80.363945 285.291870,80.386459 
z"/>
<path fill="#F2E0D6" opacity="1.000000" stroke="none" 
	d="
M66.784332,21.986748 
	C66.592117,22.115108 66.397675,22.051647 66.203224,21.988186 
	C66.396179,21.923763 66.589142,21.859343 66.784332,21.986748 
z"/>
<path fill="#F2E0D6" opacity="1.000000" stroke="none" 
	d="
M69.604904,22.314182 
	C69.427078,22.174740 69.400185,21.928173 69.373291,21.681606 
	C69.500801,21.856756 69.628311,22.031906 69.604904,22.314182 
z"/>
<path fill="#FEFAF7" opacity="1.000000" stroke="none" 
	d="
M8.011474,55.761604 
	C7.898785,55.591064 7.954053,55.418884 8.009321,55.246708 
	C8.066024,55.417793 8.122726,55.588882 8.011474,55.761604 
z"/>
<path fill="#FEFAF7" opacity="1.000000" stroke="none" 
	d="
M23.239471,54.011757 
	C23.407936,53.900429 23.577673,53.954800 23.747408,54.009171 
	C23.578520,54.065266 23.409632,54.121365 23.239471,54.011757 
z"/>
<path fill="#FFAE96" opacity="1.000000" stroke="none" 
	d="
M12.749929,53.033947 
	C13.002766,53.390503 12.982782,53.810505 12.937758,54.543182 
	C12.767514,54.269703 12.622312,53.683548 12.749929,53.033947 
z"/>
<path fill="#FAEFE8" opacity="1.000000" stroke="none" 
	d="
M277.175537,87.354233 
	C277.446564,87.101822 277.885223,87.056992 278.652466,86.968048 
	C278.435059,87.136559 277.889099,87.349182 277.175537,87.354233 
z"/>
<path fill="#BDE0FC" opacity="1.000000" stroke="none" 
	d="
M86.774796,156.066071 
	C86.833466,156.259171 86.646255,156.540207 86.220917,156.918335 
	C86.164825,156.728287 86.346870,156.441147 86.774796,156.066071 
z"/>
<path fill="#BDE0FC" opacity="1.000000" stroke="none" 
	d="
M88.785248,153.080704 
	C88.836555,153.263779 88.652657,153.551407 88.222847,153.929382 
	C88.167969,153.741562 88.359001,153.463409 88.785248,153.080704 
z"/>
<path fill="#BDE0FC" opacity="1.000000" stroke="none" 
	d="
M89.786064,152.041138 
	C89.838722,152.222870 89.655685,152.522156 89.224495,152.921173 
	C89.167686,152.733490 89.359024,152.446091 89.786064,152.041138 
z"/>
<path fill="#002971" opacity="1.000000" stroke="none" 
	d="
M196.166840,138.350342 
	C196.040421,138.155655 196.496414,138.061035 196.729156,138.068451 
	C196.961884,138.075867 197.111771,138.502502 197.115448,138.728394 
	C196.810776,138.884583 196.535492,138.748169 196.166840,138.350342 
z"/>
<path fill="#002971" opacity="1.000000" stroke="none" 
	d="
M168.390533,138.842896 
	C168.221756,138.941925 168.026108,138.510941 168.071518,138.278656 
	C168.116928,138.046356 168.573761,138.022461 168.796600,138.073410 
	C168.933640,138.381042 168.780258,138.587555 168.390533,138.842896 
z"/>
<path fill="#F7F4F2" opacity="1.000000" stroke="none" 
	d="
M276.016571,31.023281 
	C275.915192,31.063133 275.794739,31.081177 275.813965,31.031433 
	C275.953644,30.963648 275.997498,31.001474 276.016571,31.023281 
z"/>
<path fill="#F2E0D6" opacity="1.000000" stroke="none" 
	d="
M268.536469,25.555038 
	C268.476624,25.591778 268.596313,25.518297 268.536469,25.555038 
z"/>
<path fill="#F3F5F0" opacity="1.000000" stroke="none" 
	d="
M33.004646,21.005947 
	C32.907887,21.042589 32.806404,21.073284 32.846405,21.047255 
	C32.987888,20.990530 32.999916,21.000000 33.004646,21.005947 
z"/>
<path fill="#F7F4F2" opacity="1.000000" stroke="none" 
	d="
M263.539734,12.560244 
	C263.474518,12.601319 263.604950,12.519167 263.539734,12.560244 
z"/>
<path fill="#F3F5F0" opacity="1.000000" stroke="none" 
	d="
M35.463898,12.444151 
	C35.524918,12.406647 35.402882,12.481654 35.463898,12.444151 
z"/>
<path fill="#FEFAF7" opacity="1.000000" stroke="none" 
	d="
M58.463081,9.443689 
	C58.523838,9.406092 58.402321,9.481286 58.463081,9.443689 
z"/>
<path fill="#F3F5F0" opacity="1.000000" stroke="none" 
	d="
M32.442883,7.537013 
	C32.405090,7.476170 32.480675,7.597856 32.442883,7.537013 
z"/>
<path fill="#F2A490" opacity="1.000000" stroke="none" 
	d="
M106.178467,164.316071 
	C107.598145,164.443085 109.122314,164.915314 110.781754,165.719604 
	C109.372330,165.588226 107.827644,165.124771 106.178467,164.316071 
z"/>
<path fill="#F2A490" opacity="1.000000" stroke="none" 
	d="
M105.034821,160.301086 
	C107.824654,160.763809 108.086113,161.256134 106.323151,162.966675 
	C105.672928,162.216019 105.336227,161.422226 105.034821,160.301086 
z"/>
<path fill="#F2A490" opacity="1.000000" stroke="none" 
	d="
M110.836319,166.386917 
	C111.280441,166.498917 111.622330,166.915405 111.993088,167.617371 
	C111.592667,167.499039 111.163376,167.095230 110.836319,166.386917 
z"/>
<path fill="#F2A490" opacity="1.000000" stroke="none" 
	d="
M113.258514,167.810425 
	C113.174057,167.457138 113.408379,167.344788 113.830223,167.571274 
	C113.929871,167.682236 113.489426,167.823486 113.258514,167.810425 
z"/>
<path fill="#FFFEFE" opacity="1.000000" stroke="none" 
	d="
M294.808472,60.088379 
	C294.431091,59.974823 294.101196,59.267155 294.258179,58.433449 
	C294.782043,58.703033 294.819000,59.098648 294.808472,60.088379 
z"/>
<path fill="#FE9D1A" opacity="1.000000" stroke="none" 
	d="
M145.670471,65.390213 
	C141.016205,63.282902 136.742874,61.315681 132.469543,59.348465 
	C132.624435,58.726971 132.779327,58.105480 132.934204,57.483990 
	C146.974228,64.639038 161.288818,64.809761 175.862213,60.077644 
	C166.759308,66.806152 156.790939,68.299355 145.670471,65.390213 
z"/>
<path fill="#1E2A3B" opacity="1.000000" stroke="none" 
	d="
M175.076691,52.259346 
	C172.398529,52.206024 170.101746,52.069023 167.804947,51.932022 
	C167.836395,51.462051 167.867859,50.992077 167.899307,50.522106 
	C170.525055,50.282917 173.150803,50.043728 177.445557,49.652500 
	C175.367203,47.792839 174.574982,46.626083 173.492111,46.202648 
	C170.486069,45.027184 167.028900,44.202362 168.598389,39.841358 
	C169.707565,36.759335 173.888000,36.486069 177.824509,38.941147 
	C177.695770,39.208729 177.597321,39.677299 177.422623,39.707691 
	C175.326843,40.072300 173.219788,40.371971 171.115662,40.688599 
	C172.777985,41.932526 174.338577,43.352661 176.123917,44.383522 
	C179.790436,46.500587 179.601547,49.283405 175.076691,52.259346 
z"/>
<path fill="#232F3F" opacity="1.000000" stroke="none" 
	d="
M157.445160,38.620132 
	C158.264023,40.383869 158.860382,41.994659 159.855347,44.682133 
	C157.966385,43.500088 157.111862,42.965359 156.492233,42.577610 
	C155.286163,45.967667 154.139053,49.192047 152.991928,52.416431 
	C152.357483,52.374714 151.723038,52.332996 151.088593,52.291275 
	C149.623260,47.608391 148.157913,42.925503 146.692581,38.242615 
	C151.765076,39.687859 150.017853,44.788002 152.019241,47.084465 
	C153.675186,44.342087 155.448929,41.404636 157.445160,38.620132 
z"/>
<path fill="#1E2A3B" opacity="1.000000" stroke="none" 
	d="
M141.938034,43.826603 
	C141.638397,39.435604 141.638397,39.435604 134.312332,39.689125 
	C134.223373,39.263577 134.134399,38.838032 134.045441,38.412483 
	C136.333084,38.071274 138.738815,37.150555 140.868500,37.584515 
	C142.388626,37.894276 144.347229,39.845680 144.683884,41.377911 
	C145.378967,44.541420 145.152817,47.914124 145.169083,51.201447 
	C145.169968,51.380009 143.920273,51.564751 143.094025,51.107964 
	C142.580109,49.963421 142.224884,49.457531 141.945053,48.601421 
	C142.001068,47.536175 141.981689,46.821152 141.974243,45.726143 
	C141.970139,44.839638 141.954086,44.333122 141.938034,43.826603 
z"/>
<path fill="#192337" opacity="1.000000" stroke="none" 
	d="
M141.869644,48.951641 
	C142.224884,49.457531 142.580109,49.963421 142.945618,50.796135 
	C141.733337,51.483753 140.529312,51.937061 139.284470,52.186798 
	C136.355759,52.774361 133.718170,52.152271 133.274292,48.838699 
	C132.820160,45.448605 134.866577,43.710102 138.281601,43.721310 
	C139.266510,43.724545 140.251099,43.826462 141.586929,43.854870 
	C141.954086,44.333122 141.970139,44.839638 141.610443,45.679630 
	C139.625153,46.189873 137.982040,46.247505 136.444839,46.680794 
	C136.231339,46.740971 136.273941,49.435276 136.656219,49.565563 
	C137.886169,49.984745 139.334366,49.841019 140.690216,49.766224 
	C141.097107,49.743778 141.477249,49.236698 141.869644,48.951641 
z"/>
<path fill="#FEAB91" opacity="1.000000" stroke="none" 
	d="
M68.188141,124.443649 
	C63.866055,130.328339 62.743767,130.304367 57.139656,124.312775 
	C56.648285,122.295715 56.496639,120.516037 55.903309,118.898354 
	C54.747093,115.745964 53.343540,112.684296 52.067795,109.188644 
	C54.780724,111.375885 57.532635,113.896782 60.134003,116.564484 
	C61.975731,118.453171 62.822369,117.509109 63.669071,115.374039 
	C67.426704,114.570656 69.497177,115.387733 68.182793,119.721703 
	C67.783073,121.039703 68.141525,122.587654 68.188141,124.443649 
z"/>
<path fill="#ECF6FF" opacity="1.000000" stroke="none" 
	d="
M172.511017,137.850708 
	C172.039261,134.632553 172.176498,131.471954 171.974228,128.333221 
	C171.774948,125.241203 172.633942,123.746155 176.079712,123.921562 
	C180.876999,124.165771 185.698029,124.070656 190.504715,123.951584 
	C193.060059,123.888283 194.122833,124.836342 194.010483,127.428467 
	C193.874130,130.573807 193.972610,133.729355 193.959305,137.332336 
	C186.956512,137.828735 179.963913,137.873291 172.511017,137.850708 
M176.006287,131.427841 
	C175.568268,135.814636 178.533020,136.962494 181.582535,135.815781 
	C186.823669,133.845001 182.910004,129.623596 183.845520,126.106140 
	C180.859161,126.238281 178.655121,126.335808 176.253845,126.442055 
	C176.160614,127.985809 176.082626,129.277206 176.006287,131.427841 
z"/>
<path fill="#002971" opacity="1.000000" stroke="none" 
	d="
M199.710571,153.091858 
	C199.801605,153.316605 199.688934,153.620880 199.298431,153.901154 
	C199.087433,153.576263 199.249527,153.341019 199.710571,153.091858 
z"/>
<path fill="#002971" opacity="1.000000" stroke="none" 
	d="
M171.893295,153.705353 
	C171.969482,153.855133 171.501114,153.949341 171.273682,153.876373 
	C171.303207,153.720810 171.560150,153.638199 171.893295,153.705353 
z"/>
<path fill="#F2A490" opacity="1.000000" stroke="none" 
	d="
M121.682625,161.990494 
	C120.679604,161.783218 119.380058,161.427734 117.994400,160.778183 
	C119.067566,160.936829 120.226837,161.389557 121.682625,161.990494 
z"/>
<path fill="#F2A490" opacity="1.000000" stroke="none" 
	d="
M125.953644,162.725342 
	C125.335663,162.835144 124.439812,162.757370 123.296799,162.448715 
	C123.925011,162.324478 124.800400,162.431122 125.953644,162.725342 
z"/>
<path fill="#7A1F70" opacity="1.000000" stroke="none" 
	d="
M252.116348,145.927979 
	C250.970749,147.288757 249.781891,148.235245 248.313599,149.041840 
	C248.811386,145.892960 249.588577,142.883987 250.661362,138.730637 
	C251.281891,141.712204 251.677490,143.612930 252.116348,145.927979 
z"/>
<path fill="#FEF7F3" opacity="1.000000" stroke="none" 
	d="
M21.016562,53.951618 
	C19.601130,53.943275 18.167706,53.943275 16.734283,53.943275 
	C16.745102,53.667149 16.755920,53.391018 16.766741,53.114891 
	C18.028606,53.220505 19.290472,53.326118 20.773396,53.714340 
	C20.994455,53.996952 20.998569,53.959961 21.016562,53.951618 
z"/>
<path fill="#FFE9D7" opacity="1.000000" stroke="none" 
	d="
M18.673801,51.289139 
	C19.353657,51.186771 19.812937,51.250317 20.272215,51.313866 
	C20.260698,51.439625 20.249180,51.565388 20.237661,51.691147 
	C19.642851,51.612450 19.048038,51.533752 18.673801,51.289139 
z"/>
<path fill="#FEFAF7" opacity="1.000000" stroke="none" 
	d="
M276.582520,81.112526 
	C276.998779,81.546570 276.999390,81.909401 276.999084,82.544250 
	C275.112122,82.816261 273.226105,82.816261 271.340057,82.816261 
	C271.297974,82.371338 271.255859,81.926414 271.213745,81.481491 
	C272.864777,81.334770 274.515808,81.188042 276.582520,81.112526 
z"/>
<path fill="#FEFAF7" opacity="1.000000" stroke="none" 
	d="
M276.600098,84.114037 
	C276.998291,84.554588 276.998413,84.926628 276.997375,85.577446 
	C276.230774,85.933372 275.465332,86.010521 274.321838,86.158463 
	C273.148071,85.870178 272.352386,85.511108 271.255341,85.000626 
	C272.703339,84.581322 274.452667,84.313423 276.600098,84.114037 
z"/>
<path fill="#DEE4EB" opacity="1.000000" stroke="none" 
	d="
M141.945053,48.601421 
	C141.477249,49.236698 141.097107,49.743778 140.690216,49.766224 
	C139.334366,49.841019 137.886169,49.984745 136.656219,49.565563 
	C136.273941,49.435276 136.231339,46.740971 136.444839,46.680794 
	C137.982040,46.247505 139.625153,46.189873 141.598480,46.059616 
	C141.981689,46.821152 142.001068,47.536175 141.945053,48.601421 
z"/>
<path fill="#FCFEFF" opacity="1.000000" stroke="none" 
	d="
M176.005463,130.998215 
	C176.082626,129.277206 176.160614,127.985809 176.253845,126.442055 
	C178.655121,126.335808 180.859161,126.238281 183.845520,126.106140 
	C182.910004,129.623596 186.823669,133.845001 181.582535,135.815781 
	C178.533020,136.962494 175.568268,135.814636 176.005463,130.998215 
z"/>
</svg>