<svg version="1.1" id="Layer_1" xmlns="http://www.w3.org/2000/svg" xmlns:xlink="http://www.w3.org/1999/xlink" x="0px" y="0px"
	 width="100%" viewBox="0 0 313 161" enable-background="new 0 0 313 161" xml:space="preserve">
<path fill="#FDFEFD" opacity="1.000000" stroke="none" 
	d="
M207.000000,162.000000 
	C138.000015,162.000000 69.500015,162.000000 1.000018,162.000000 
	C1.000012,108.333351 1.000012,54.666695 1.000006,1.000033 
	C105.333305,1.000022 209.666611,1.000022 313.999939,1.000011 
	C313.999939,54.666630 313.999939,108.333260 313.999969,161.999939 
	C278.500000,162.000000 243.000000,162.000000 207.000000,162.000000 
M231.709732,95.548424 
	C231.832977,93.952377 231.956238,92.356323 232.100449,90.488708 
	C235.779358,92.650185 238.841583,92.438110 241.256393,89.250839 
	C243.586014,86.175987 242.481369,81.789719 238.969696,77.820152 
	C235.864258,77.582588 233.409760,77.394814 230.085602,76.981445 
	C229.045456,77.735863 227.142303,78.449173 227.104095,79.251305 
	C226.840210,84.791054 226.965164,90.349319 226.965164,96.061302 
	C228.656433,95.944351 229.799423,95.865318 231.709732,95.548424 
M137.035522,83.665451 
	C128.431030,93.255150 119.826546,102.844856 110.824692,112.877426 
	C117.891342,113.471916 124.273758,114.008842 130.695404,114.549065 
	C130.695404,121.011215 130.695404,127.188210 130.695404,133.999100 
	C132.281357,132.291092 133.607224,130.870728 134.924942,129.442841 
	C142.461761,121.275818 149.996658,113.107010 157.919983,105.554398 
	C163.285492,111.501053 168.651001,117.447708 174.763229,124.221977 
	C175.706192,116.938942 176.479141,110.968956 177.217087,105.269302 
	C183.763565,104.429863 189.847198,107.561264 196.152954,105.032707 
	C189.448410,97.415344 183.183594,90.297600 177.143555,82.522377 
	C185.059570,73.737892 193.000839,64.975891 200.864426,56.144707 
	C202.045334,54.818497 203.539520,53.248665 203.728104,51.654255 
	C204.444565,45.596607 204.684555,39.482609 205.117233,33.177734 
	C199.255737,32.534134 193.798660,32.138653 188.420029,31.261967 
	C185.553146,30.794682 183.896393,31.725306 182.054474,33.784737 
	C173.853775,42.953823 165.466690,51.956207 156.783997,60.418152 
	C151.464981,54.467106 146.203796,48.462410 140.776031,42.612263 
	C139.744614,41.500572 138.121307,40.511559 136.654556,40.308781 
	C131.914932,39.653538 127.124794,39.195850 122.345535,39.102634 
	C121.001839,39.076424 118.571159,40.423077 118.442375,41.382160 
	C117.669090,47.141117 117.286865,52.966480 117.106697,58.779922 
	C117.068779,60.003281 118.235466,61.430050 119.159988,62.490219 
	C125.169807,69.381729 131.266052,76.197876 137.035522,83.665451 
M286.738617,37.950932 
	C286.258484,43.548309 285.778320,49.145687 285.268890,55.084629 
	C278.145874,54.694832 271.436981,54.327690 263.746002,53.906811 
	C264.889679,55.130642 265.292908,55.580757 265.715607,56.011730 
	C281.377747,71.979858 279.052704,100.083244 264.950806,111.317879 
	C264.141663,111.962494 263.481354,113.212837 263.371307,114.247192 
	C262.725250,120.318779 262.263519,126.409981 261.718811,132.735977 
	C267.295258,133.218353 272.446259,133.390015 277.498779,134.186554 
	C281.635956,134.838776 284.432098,133.231750 287.175812,130.492462 
	C306.556549,111.142860 310.278900,88.217308 302.334381,62.870480 
	C299.314178,53.234535 294.995850,44.097389 286.738617,37.950932 
M201.612152,111.172142 
	C194.705032,110.661224 187.797913,110.150307 180.585526,109.616806 
	C180.106750,114.836327 179.915695,119.490311 179.184799,124.057915 
	C178.619827,127.588707 179.676483,129.955627 182.270737,132.347977 
	C202.034927,150.574081 225.163483,155.206894 250.847672,149.537140 
	C260.061584,147.503189 268.752899,144.134613 277.099548,138.041260 
	C270.008881,137.333282 263.777161,136.711060 257.381561,136.072479 
	C257.976532,129.143265 258.523529,122.772629 259.088196,116.196175 
	C234.208725,127.248405 220.712219,126.082466 201.612152,111.172142 
M11.287736,60.025600 
	C10.566152,62.881153 9.632470,65.701912 9.157386,68.597908 
	C6.060068,87.478355 8.172727,105.350479 19.964800,121.147911 
	C21.152901,122.739563 23.101276,124.465843 24.915367,124.754059 
	C29.989443,125.560204 35.174545,125.772652 40.324352,125.918671 
	C41.523697,125.952682 43.789967,124.833015 43.815823,124.175392 
	C44.095184,117.068771 46.724655,110.047997 42.826473,102.851143 
	C34.210522,86.944283 35.878490,71.610428 46.913589,57.282841 
	C48.039780,55.820637 49.069279,54.283962 50.312698,52.545483 
	C43.193356,52.057892 36.847073,51.623245 30.842724,51.212017 
	C29.986704,44.876514 32.587391,39.303524 29.569633,33.302097 
	C20.991928,40.828999 15.134748,49.235847 11.287736,60.025600 
M117.655052,143.226425 
	C120.454620,141.046005 124.987099,139.316345 125.695702,136.592041 
	C127.205200,130.788681 126.729645,124.469002 127.101364,117.750374 
	C124.008965,118.071960 121.089317,119.275291 118.991638,118.432594 
	C111.322075,115.351509 104.720840,118.005104 97.717636,120.712585 
	C84.624504,125.774475 71.661095,125.005836 59.270622,118.115402 
	C55.945759,116.266426 52.758915,114.169273 49.236618,112.020027 
	C48.633102,118.330490 48.055428,124.370811 47.465916,130.534851 
	C40.722454,130.138611 34.401215,129.767181 27.712938,129.374191 
	C46.504841,150.054474 84.610832,160.300888 117.655052,143.226425 
M113.884132,40.346840 
	C114.034622,38.403175 114.185112,36.459507 114.328804,34.603611 
	C120.454811,34.603611 126.226952,34.603611 131.999084,34.603611 
	C132.183777,34.221321 132.368469,33.839031 132.553162,33.456738 
	C131.616989,32.800468 130.709641,32.097229 129.736984,31.500395 
	C128.639420,30.826912 127.327408,30.428457 126.376122,29.602381 
	C115.136787,19.842369 101.937538,14.824780 87.237007,14.034374 
	C77.199539,13.494687 67.263344,14.298062 57.894516,18.790087 
	C51.636024,21.790817 45.055477,24.114168 38.716846,26.958586 
	C37.554478,27.480192 36.182270,28.981226 36.067249,30.144857 
	C35.501839,35.864895 35.327877,41.623631 35.001183,47.635635 
	C39.952736,47.933052 44.441574,47.950798 48.854111,48.539982 
	C53.094795,49.106224 56.814465,48.648075 60.774258,46.681744 
	C76.475586,38.884899 91.818192,39.664692 106.446754,49.661507 
	C108.416176,51.007366 110.284416,52.501289 112.578728,54.208897 
	C113.023048,49.434845 113.404388,45.337429 113.884132,40.346840 
M208.350677,37.956036 
	C208.161346,41.501400 207.972000,45.046768 207.762741,48.965275 
	C224.963242,38.317001 244.593979,39.433762 254.713455,46.585552 
	C263.510406,52.802696 272.798767,49.856747 281.874481,51.916206 
	C282.113708,49.519489 282.246338,47.868912 282.447449,46.226727 
	C284.334229,30.819328 282.867584,28.088308 268.922089,21.123320 
	C268.179108,20.752241 267.427856,20.395241 266.666260,20.064301 
	C252.003586,13.692857 236.755402,12.774214 221.197205,15.420403 
	C209.876434,17.345877 199.208435,21.081263 188.820724,27.859131 
	C196.076141,28.694750 202.435989,29.427225 209.014618,30.184896 
	C208.814270,32.792393 208.650146,34.928303 208.350677,37.956036 
M207.215561,74.494255 
	C206.652878,75.102417 205.984879,75.643112 205.544922,76.329903 
	C203.057495,80.212982 202.884384,84.272598 205.645157,87.955910 
	C208.390518,91.618690 212.341553,92.824257 216.752838,91.425407 
	C221.080566,90.053062 223.065826,87.348061 223.513687,82.352272 
	C224.228119,74.383110 215.844452,70.325600 207.215561,74.494255 
M57.909050,73.605797 
	C57.909050,79.484009 57.909050,85.362221 57.909050,91.276947 
	C61.341652,91.276947 64.164108,91.521805 66.928619,91.225655 
	C72.574600,90.620819 75.517708,87.077141 75.334885,81.546623 
	C75.161850,76.312431 72.084023,73.179565 66.502235,72.822716 
	C63.864136,72.654060 61.203411,72.839386 57.909050,73.605797 
M81.734619,91.036201 
	C85.412582,92.651337 88.648064,92.340256 92.238274,88.211411 
	C88.551056,87.815140 85.859192,87.525841 83.167328,87.236542 
	C83.213326,86.810852 83.259315,86.385155 83.305313,85.959457 
	C86.226631,85.824921 89.147957,85.690392 93.794693,85.476395 
	C91.716835,82.232834 90.741325,79.013763 88.660789,77.944176 
	C86.621071,76.895569 83.014046,77.221352 80.879852,78.384369 
	C76.626465,80.702248 76.950897,86.313889 81.734619,91.036201 
M97.902435,88.630432 
	C98.955772,89.672470 99.855072,91.105446 101.122261,91.604729 
	C101.841621,91.888153 103.729065,90.899017 104.117912,90.041824 
	C105.985481,85.924736 107.521454,81.657219 109.205544,77.365753 
	C101.812782,75.378960 103.912430,82.204674 101.442497,84.566826 
	C97.477158,76.816856 97.477158,76.816856 93.583946,77.729500 
	C94.940132,81.139610 96.285561,84.522667 97.902435,88.630432 
M248.972061,87.974060 
	C247.595413,88.124306 246.218765,88.274551 244.047180,88.511551 
	C248.481903,92.339592 253.443680,93.194550 255.482635,90.545204 
	C260.658142,83.820244 251.984879,83.950813 249.646667,80.553757 
	C255.151993,80.945633 255.151993,80.945633 256.280487,78.094994 
	C252.419113,76.576790 247.830246,75.784943 245.822571,79.668343 
	C242.629044,85.845474 250.167633,84.929932 252.863983,87.910934 
	C251.521164,87.989746 250.608185,88.043335 248.972061,87.974060 
z"/>
<path fill="#04D25F" opacity="1.000000" stroke="none" 
	d="
M157.532211,104.938812 
	C149.996658,113.107010 142.461761,121.275818 134.924942,129.442841 
	C133.607224,130.870728 132.281357,132.291092 130.695404,133.999100 
	C130.695404,127.188210 130.695404,121.011215 130.695404,114.549065 
	C124.273758,114.008842 117.891342,113.471916 110.824692,112.877426 
	C119.826546,102.844856 128.431030,93.255150 137.426514,83.142517 
	C144.260651,75.419334 150.703812,68.219086 157.146973,61.018845 
	C165.466690,51.956207 173.853775,42.953823 182.054474,33.784737 
	C183.896393,31.725306 185.553146,30.794682 188.420029,31.261967 
	C193.798660,32.138653 199.255737,32.534134 205.117233,33.177734 
	C204.684555,39.482609 204.444565,45.596607 203.728104,51.654255 
	C203.539520,53.248665 202.045334,54.818497 200.864426,56.144707 
	C193.000839,64.975891 185.059570,73.737892 176.747650,82.996078 
	C170.078552,90.626122 163.805374,97.782463 157.532211,104.938812 
M161.440918,76.251762 
	C161.372131,76.609283 161.303345,76.966812 161.234558,77.324326 
	C161.453751,77.081284 161.672943,76.838234 161.440918,76.251762 
z"/>
<path fill="#04D25F" opacity="1.000000" stroke="none" 
	d="
M286.909393,37.597015 
	C294.995850,44.097389 299.314178,53.234535 302.334381,62.870480 
	C310.278900,88.217308 306.556549,111.142860 287.175812,130.492462 
	C284.432098,133.231750 281.635956,134.838776 277.498779,134.186554 
	C272.446259,133.390015 267.295258,133.218353 261.718811,132.735977 
	C262.263519,126.409981 262.725250,120.318779 263.371307,114.247192 
	C263.481354,113.212837 264.141663,111.962494 264.950806,111.317879 
	C279.052704,100.083244 281.377747,71.979858 265.715607,56.011730 
	C265.292908,55.580757 264.889679,55.130642 263.746002,53.906811 
	C271.436981,54.327690 278.145874,54.694832 285.268890,55.084629 
	C285.778320,49.145687 286.258484,43.548309 286.909393,37.597015 
M288.242767,72.426926 
	C288.601746,72.409134 288.960724,72.391350 289.319702,72.373558 
	C288.884277,72.244667 288.448853,72.115768 287.943237,71.334892 
	C287.295654,70.631737 286.648102,69.928589 286.000519,69.225433 
	C285.695312,69.647484 285.390106,70.069534 285.084900,70.491585 
	C286.053772,70.998482 287.022644,71.505386 288.242767,72.426926 
M285.366699,66.176361 
	C287.142334,65.584099 288.917999,64.991837 290.693634,64.399574 
	C290.448395,63.852715 290.203186,63.305855 289.957947,62.758995 
	C288.431519,63.675282 286.905090,64.591568 285.366699,66.176361 
M293.168243,69.774986 
	C293.228394,69.035591 293.288574,68.296204 293.348724,67.556808 
	C293.056641,67.511261 292.764557,67.465714 292.472473,67.420158 
	C292.071350,68.745499 291.670258,70.070839 291.269165,71.396179 
	C291.531128,71.509827 291.793121,71.623466 292.055084,71.737114 
	C292.373077,71.288383 292.691101,70.839653 293.168243,69.774986 
z"/>
<path fill="#05D15F" opacity="1.000000" stroke="none" 
	d="
M201.982529,111.343460 
	C220.712219,126.082466 234.208725,127.248405 259.088196,116.196175 
	C258.523529,122.772629 257.976532,129.143265 257.381561,136.072479 
	C263.777161,136.711060 270.008881,137.333282 277.099548,138.041260 
	C268.752899,144.134613 260.061584,147.503189 250.847672,149.537140 
	C225.163483,155.206894 202.034927,150.574081 182.270737,132.347977 
	C179.676483,129.955627 178.619827,127.588707 179.184799,124.057915 
	C179.915695,119.490311 180.106750,114.836327 180.585526,109.616806 
	C187.797913,110.150307 194.705032,110.661224 201.982529,111.343460 
z"/>
<path fill="#0F2E41" opacity="1.000000" stroke="none" 
	d="
M11.474932,59.672684 
	C15.134748,49.235847 20.991928,40.828999 29.569633,33.302097 
	C32.587391,39.303524 29.986704,44.876514 30.842724,51.212017 
	C36.847073,51.623245 43.193356,52.057892 50.312698,52.545483 
	C49.069279,54.283962 48.039780,55.820637 46.913589,57.282841 
	C35.878490,71.610428 34.210522,86.944283 42.826473,102.851143 
	C46.724655,110.047997 44.095184,117.068771 43.815823,124.175392 
	C43.789967,124.833015 41.523697,125.952682 40.324352,125.918671 
	C35.174545,125.772652 29.989443,125.560204 24.915367,124.754059 
	C23.101276,124.465843 21.152901,122.739563 19.964800,121.147911 
	C8.172727,105.350479 6.060068,87.478355 9.157386,68.597908 
	C9.632470,65.701912 10.566152,62.881153 11.474932,59.672684 
M26.407242,74.774323 
	C25.267065,74.492020 24.126886,74.209717 23.076868,73.953026 
	C23.076868,73.953026 23.117529,73.868576 23.174166,73.190117 
	C23.187319,71.536606 27.627827,69.900597 22.830097,67.824142 
	C22.484997,68.345230 22.139898,68.866325 21.527826,69.344337 
	C21.527826,69.344337 21.452990,69.084473 20.955645,69.148727 
	C20.832689,69.256050 20.709732,69.363365 20.586777,69.470680 
	C20.801304,69.700012 21.015831,69.929344 21.203289,70.834396 
	C21.466320,71.890152 21.729349,72.945908 22.127913,74.912804 
	C22.174730,75.528656 22.221550,76.144516 21.576075,76.540146 
	C21.099543,76.462296 20.623011,76.384445 19.514009,76.138298 
	C19.138575,76.515434 18.763138,76.892578 18.387705,77.269714 
	C18.957439,77.459763 19.527176,77.649818 20.081429,77.971893 
	C20.081429,77.971893 19.974560,78.050941 19.997700,78.751358 
	C20.023693,79.217613 20.049686,79.683876 20.475573,80.690811 
	C22.235008,81.038666 23.994446,81.386528 26.361893,81.656586 
	C26.572655,81.112259 26.783415,80.567940 26.955658,79.321564 
	C26.918409,79.090179 26.881159,78.858788 26.813618,78.115814 
	C26.540066,77.720924 26.266514,77.326027 26.000999,76.370102 
	C25.998068,75.995712 25.995136,75.621330 26.407242,74.774323 
M24.673901,91.712212 
	C25.015186,91.517464 25.356472,91.322708 25.697762,91.127960 
	C25.424231,90.845596 25.150700,90.563225 24.877169,90.280861 
	C24.675886,90.611771 24.474606,90.942673 24.673901,91.712212 
z"/>
<path fill="#0F2D41" opacity="1.000000" stroke="none" 
	d="
M117.358116,143.453552 
	C84.610832,160.300888 46.504841,150.054474 27.712938,129.374191 
	C34.401215,129.767181 40.722454,130.138611 47.465916,130.534851 
	C48.055428,124.370811 48.633102,118.330490 49.236618,112.020027 
	C52.758915,114.169273 55.945759,116.266426 59.270622,118.115402 
	C71.661095,125.005836 84.624504,125.774475 97.717636,120.712585 
	C104.720840,118.005104 111.322075,115.351509 118.991638,118.432594 
	C121.089317,119.275291 124.008965,118.071960 127.101364,117.750374 
	C126.729645,124.469002 127.205200,130.788681 125.695702,136.592041 
	C124.987099,139.316345 120.454620,141.046005 117.358116,143.453552 
M87.021111,137.979019 
	C87.021111,137.979019 87.024986,138.034607 86.900215,137.364075 
	C86.253456,137.238098 85.606689,137.112122 85.000519,136.986053 
	C85.000519,136.986053 84.989655,137.025146 85.175186,136.443787 
	C85.202309,136.039337 85.229431,135.634888 85.992981,135.194260 
	C87.307388,134.807434 88.621796,134.420593 89.936203,134.033768 
	C89.848557,133.768219 89.760910,133.502686 89.673264,133.237152 
	C87.992767,133.682556 86.312271,134.127975 84.170204,134.834106 
	C83.811996,135.218887 83.453781,135.603668 82.626678,135.999603 
	C82.626678,135.999603 82.157761,136.009628 81.892273,135.590469 
	C81.552452,135.686066 81.212624,135.781677 80.199348,136.030167 
	C79.149635,135.622040 78.099922,135.213898 76.117516,134.443130 
	C76.498131,136.421051 76.764519,137.805374 77.214394,139.923767 
	C80.474014,141.235260 83.734871,142.281921 87.612144,139.774734 
	C87.396576,139.175247 87.181015,138.575775 87.021111,137.979019 
z"/>
<path fill="#0F2E41" opacity="1.000000" stroke="none" 
	d="
M113.834930,40.793427 
	C113.404388,45.337429 113.023048,49.434845 112.578728,54.208897 
	C110.284416,52.501289 108.416176,51.007366 106.446754,49.661507 
	C91.818192,39.664692 76.475586,38.884899 60.774258,46.681744 
	C56.814465,48.648075 53.094795,49.106224 48.854111,48.539982 
	C44.441574,47.950798 39.952736,47.933052 35.001183,47.635635 
	C35.327877,41.623631 35.501839,35.864895 36.067249,30.144857 
	C36.182270,28.981226 37.554478,27.480192 38.716846,26.958586 
	C45.055477,24.114168 51.636024,21.790817 57.894516,18.790087 
	C67.263344,14.298062 77.199539,13.494687 87.237007,14.034374 
	C101.937538,14.824780 115.136787,19.842369 126.376122,29.602381 
	C127.327408,30.428457 128.639420,30.826912 129.736984,31.500395 
	C130.709641,32.097229 131.616989,32.800468 132.553162,33.456738 
	C132.368469,33.839031 132.183777,34.221321 131.999084,34.603611 
	C126.226952,34.603611 120.454811,34.603611 114.328804,34.603611 
	C114.185112,36.459507 114.034622,38.403175 113.834930,40.793427 
M76.676186,29.968805 
	C76.905945,29.956398 77.135696,29.943993 77.664413,29.843378 
	C77.664413,29.843378 77.975685,29.859619 78.094498,30.587843 
	C79.728676,30.729349 81.362846,30.870855 83.479584,30.800617 
	C83.687096,30.521473 83.894608,30.242329 84.592598,29.992647 
	C84.592598,29.992647 85.085793,29.987047 85.752998,30.054453 
	C86.868439,30.682264 87.983879,31.310074 89.381226,32.096554 
	C89.247581,30.622658 89.166153,29.724634 89.765793,28.866205 
	C89.860397,27.882267 89.955009,26.898331 89.723885,25.334021 
	C88.791840,25.545357 87.859795,25.756693 86.998367,25.976755 
	C86.998367,25.976755 86.966423,25.913174 86.371811,25.879702 
	C85.915405,26.252800 85.458992,26.625900 84.545273,27.000229 
	C84.545273,27.000229 84.089088,27.032394 83.920464,26.334438 
	C82.945290,25.896301 81.970123,25.458164 80.675148,24.495621 
	C79.409019,25.343307 78.142899,26.190994 76.412613,27.014790 
	C76.412613,27.014790 75.947853,27.016447 75.336227,27.276941 
	C75.552956,28.183180 75.769691,29.089418 76.676186,29.968805 
z"/>
<path fill="#05D25F" opacity="1.000000" stroke="none" 
	d="
M208.418365,37.510124 
	C208.650146,34.928303 208.814270,32.792393 209.014618,30.184896 
	C202.435989,29.427225 196.076141,28.694750 188.820724,27.859131 
	C199.208435,21.081263 209.876434,17.345877 221.197205,15.420403 
	C236.755402,12.774214 252.003586,13.692857 266.666260,20.064301 
	C267.427856,20.395241 268.179108,20.752241 268.922089,21.123320 
	C282.867584,28.088308 284.334229,30.819328 282.447449,46.226727 
	C282.246338,47.868912 282.113708,49.519489 281.874481,51.916206 
	C272.798767,49.856747 263.510406,52.802696 254.713455,46.585552 
	C244.593979,39.433762 224.963242,38.317001 207.762741,48.965275 
	C207.972000,45.046768 208.161346,41.501400 208.418365,37.510124 
M239.458633,25.398294 
	C239.151733,27.622620 238.844833,29.846943 238.537933,32.071266 
	C238.968033,32.110897 239.398132,32.150524 239.828217,32.190151 
	C239.934036,29.851999 240.039856,27.513847 239.458633,25.398294 
z"/>
<path fill="#0F2F42" opacity="1.000000" stroke="none" 
	d="
M156.965485,60.718498 
	C150.703812,68.219086 144.260651,75.419334 137.575745,82.829132 
	C131.266052,76.197876 125.169807,69.381729 119.159988,62.490219 
	C118.235466,61.430050 117.068779,60.003281 117.106697,58.779922 
	C117.286865,52.966480 117.669090,47.141117 118.442375,41.382160 
	C118.571159,40.423077 121.001839,39.076424 122.345535,39.102634 
	C127.124794,39.195850 131.914932,39.653538 136.654556,40.308781 
	C138.121307,40.511559 139.744614,41.500572 140.776031,42.612263 
	C146.203796,48.462410 151.464981,54.467106 156.965485,60.718498 
z"/>
<path fill="#102F42" opacity="1.000000" stroke="none" 
	d="
M157.726105,105.246597 
	C163.805374,97.782463 170.078552,90.626122 176.635254,83.324814 
	C183.183594,90.297600 189.448410,97.415344 196.152954,105.032707 
	C189.847198,107.561264 183.763565,104.429863 177.217087,105.269302 
	C176.479141,110.968956 175.706192,116.938942 174.763229,124.221977 
	C168.651001,117.447708 163.285492,111.501053 157.726105,105.246597 
z"/>
<path fill="#143145" opacity="1.000000" stroke="none" 
	d="
M207.547684,74.270241 
	C215.844452,70.325600 224.228119,74.383110 223.513687,82.352272 
	C223.065826,87.348061 221.080566,90.053062 216.752838,91.425407 
	C212.341553,92.824257 208.390518,91.618690 205.645157,87.955910 
	C202.884384,84.272598 203.057495,80.212982 205.544922,76.329903 
	C205.984879,75.643112 206.652878,75.102417 207.547684,74.270241 
M215.169342,87.062843 
	C218.775116,85.907799 219.892731,83.101646 218.375351,80.115677 
	C217.582809,78.556084 214.686554,76.975410 213.047424,77.248276 
	C211.465271,77.511665 209.409531,79.994316 209.100494,81.769844 
	C208.488052,85.288696 210.688950,87.251892 215.169342,87.062843 
z"/>
<path fill="#05D35E" opacity="1.000000" stroke="none" 
	d="
M58.230995,73.235062 
	C61.203411,72.839386 63.864136,72.654060 66.502235,72.822716 
	C72.084023,73.179565 75.161850,76.312431 75.334885,81.546623 
	C75.517708,87.077141 72.574600,90.620819 66.928619,91.225655 
	C64.164108,91.521805 61.341652,91.276947 57.909050,91.276947 
	C57.909050,85.362221 57.909050,79.484009 58.230995,73.235062 
M62.357651,85.041252 
	C63.383568,88.655182 66.482841,87.498787 67.710236,86.302223 
	C69.150597,84.898041 70.297005,81.893539 69.794403,80.073769 
	C68.837746,76.609932 65.675339,76.565659 62.347927,77.472725 
	C62.347927,79.887756 62.347927,82.033974 62.357651,85.041252 
z"/>
<path fill="#10D463" opacity="1.000000" stroke="none" 
	d="
M81.382690,90.847725 
	C76.950897,86.313889 76.626465,80.702248 80.879852,78.384369 
	C83.014046,77.221352 86.621071,76.895569 88.660789,77.944176 
	C90.741325,79.013763 91.716835,82.232834 93.794693,85.476395 
	C89.147957,85.690392 86.226631,85.824921 83.305313,85.959457 
	C83.259315,86.385155 83.213326,86.810852 83.167328,87.236542 
	C85.859192,87.525841 88.551056,87.815140 92.238274,88.211411 
	C88.648064,92.340256 85.412582,92.651337 81.382690,90.847725 
z"/>
<path fill="#133044" opacity="1.000000" stroke="none" 
	d="
M230.955261,77.207047 
	C233.409760,77.394814 235.864258,77.582588 238.969696,77.820152 
	C242.481369,81.789719 243.586014,86.175987 241.256393,89.250839 
	C238.841583,92.438110 235.779358,92.650185 232.100449,90.488708 
	C231.956238,92.356323 231.832977,93.952377 231.057663,95.409225 
	C229.606033,94.094261 228.243088,92.975723 228.116730,91.731598 
	C227.789169,88.506393 227.682419,85.179810 228.137100,81.986183 
	C228.378067,80.293701 229.972061,78.793854 230.955261,77.207047 
M238.010071,84.376030 
	C236.880600,83.250565 235.891724,81.838051 234.536209,81.174011 
	C234.127914,80.973991 231.842606,82.927658 231.914352,83.766739 
	C232.075333,85.649689 233.175323,87.452354 234.285416,90.291138 
	C236.108627,87.728371 237.021652,86.444992 238.010071,84.376030 
z"/>
<path fill="#0FD462" opacity="1.000000" stroke="none" 
	d="
M97.766708,88.268082 
	C96.285561,84.522667 94.940132,81.139610 93.583946,77.729500 
	C97.477158,76.816856 97.477158,76.816856 101.442657,84.566978 
	C103.912430,82.204674 101.812782,75.378960 109.205544,77.365753 
	C107.521454,81.657219 105.985481,85.924736 104.117912,90.041824 
	C103.729065,90.899017 101.841621,91.888153 101.122261,91.604729 
	C99.855072,91.105446 98.955772,89.672470 97.766708,88.268082 
z"/>
<path fill="#1B3549" opacity="1.000000" stroke="none" 
	d="
M249.333633,88.035492 
	C250.608185,88.043335 251.521164,87.989746 252.863983,87.910934 
	C250.167633,84.929932 242.629044,85.845474 245.822571,79.668343 
	C247.830246,75.784943 252.419113,76.576790 256.280487,78.094994 
	C255.151993,80.945633 255.151993,80.945633 249.646667,80.553757 
	C251.984879,83.950813 260.658142,83.820244 255.482635,90.545204 
	C253.443680,93.194550 248.481903,92.339592 244.047180,88.511551 
	C246.218765,88.274551 247.595413,88.124306 249.333633,88.035492 
z"/>
<path fill="#000325" opacity="1.000000" stroke="none" 
	d="
M230.520432,77.094246 
	C229.972061,78.793854 228.378067,80.293701 228.137100,81.986183 
	C227.682419,85.179810 227.789169,88.506393 228.116730,91.731598 
	C228.243088,92.975723 229.606033,94.094261 230.673996,95.528152 
	C229.799423,95.865318 228.656433,95.944351 226.965164,96.061302 
	C226.965164,90.349319 226.840210,84.791054 227.104095,79.251305 
	C227.142303,78.449173 229.045456,77.735863 230.520432,77.094246 
z"/>
<path fill="#0C3E43" opacity="1.000000" stroke="none" 
	d="
M161.666534,76.423477 
	C161.672943,76.838234 161.453751,77.081284 161.234558,77.324326 
	C161.303345,76.966812 161.372131,76.609283 161.666534,76.423477 
z"/>
<path fill="#03C35C" opacity="1.000000" stroke="none" 
	d="
M285.372681,65.842102 
	C286.905090,64.591568 288.431519,63.675282 289.957947,62.758995 
	C290.203186,63.305855 290.448395,63.852715 290.693634,64.399574 
	C288.917999,64.991837 287.142334,65.584099 285.372681,65.842102 
z"/>
<path fill="#03C35C" opacity="1.000000" stroke="none" 
	d="
M293.088684,70.082954 
	C292.691101,70.839653 292.373077,71.288383 292.055084,71.737114 
	C291.793121,71.623466 291.531128,71.509827 291.269165,71.396179 
	C291.670258,70.070839 292.071350,68.745499 292.472473,67.420158 
	C292.764557,67.465714 293.056641,67.511261 293.348724,67.556808 
	C293.288574,68.296204 293.228394,69.035591 293.088684,70.082954 
z"/>
<path fill="#03C35C" opacity="1.000000" stroke="none" 
	d="
M287.991516,72.012283 
	C287.022644,71.505386 286.053772,70.998482 285.084900,70.491585 
	C285.390106,70.069534 285.695312,69.647484 286.000519,69.225433 
	C286.648102,69.928589 287.295654,70.631737 287.972046,71.666992 
	C288.000885,71.999092 287.991516,72.012283 287.991516,72.012283 
z"/>
<path fill="#03C35C" opacity="1.000000" stroke="none" 
	d="
M288.007141,71.992981 
	C288.448853,72.115768 288.884277,72.244667 289.319702,72.373566 
	C288.960724,72.391350 288.601746,72.409134 288.117126,72.219604 
	C287.991516,72.012283 288.000885,71.999092 288.007141,71.992981 
z"/>
<path fill="#089352" opacity="1.000000" stroke="none" 
	d="
M21.992380,74.001663 
	C21.729349,72.945908 21.466320,71.890152 21.278049,70.228149 
	C21.386204,69.442757 21.419598,69.263611 21.452990,69.084473 
	C21.452990,69.084473 21.527826,69.344337 21.869198,69.494125 
	C22.538301,69.172440 22.866034,68.700981 23.193766,68.229515 
	C27.627827,69.900597 23.187319,71.536606 22.865723,73.575684 
	C22.368980,73.974716 22.180679,73.988190 21.992380,74.001663 
z"/>
<path fill="#0D2240" opacity="1.000000" stroke="none" 
	d="
M20.075680,80.150131 
	C20.049686,79.683876 20.023693,79.217613 20.381939,78.374268 
	C22.792089,78.207245 24.818001,78.417313 26.843910,78.627388 
	C26.881159,78.858788 26.918409,79.090179 26.699993,79.674698 
	C26.263735,80.059341 26.083143,80.090851 25.486160,80.092537 
	C23.405073,80.091850 21.740376,80.120987 20.075680,80.150131 
z"/>
<path fill="#04BE5B" opacity="1.000000" stroke="none" 
	d="
M26.828764,78.371597 
	C24.818001,78.417313 22.792089,78.207245 20.370369,78.024055 
	C19.974560,78.050941 20.081429,77.971893 20.066399,77.649788 
	C20.083075,76.987320 20.114777,76.646950 20.146479,76.306587 
	C20.623011,76.384445 21.099543,76.462296 22.115944,76.746658 
	C23.103647,76.968452 23.551483,76.983734 24.332245,76.998703 
	C25.107769,76.975975 25.550367,76.953552 25.992964,76.931137 
	C26.266514,77.326027 26.540066,77.720924 26.828764,78.371597 
z"/>
<path fill="#04BE5B" opacity="1.000000" stroke="none" 
	d="
M20.275627,80.420471 
	C21.740376,80.120987 23.405073,80.091850 25.505899,80.364044 
	C25.879314,81.021713 25.816599,81.378052 25.753883,81.734383 
	C23.994446,81.386528 22.235008,81.038666 20.275627,80.420471 
z"/>
<path fill="#09884F" opacity="1.000000" stroke="none" 
	d="
M23.999317,76.999023 
	C23.551483,76.983734 23.103647,76.968452 22.462091,76.856766 
	C22.221550,76.144516 22.174730,75.528656 22.060146,74.457230 
	C22.180679,73.988190 22.368980,73.974716 22.837404,73.914909 
	C23.117529,73.868576 23.076868,73.953026 23.151228,74.181778 
	C23.505346,74.634315 23.785103,74.858086 23.972990,75.397141 
	C23.920519,76.141296 23.959919,76.570160 23.999317,76.999023 
z"/>
<path fill="#09884F" opacity="1.000000" stroke="none" 
	d="
M19.830244,76.222443 
	C20.114777,76.646950 20.083075,76.987320 20.074142,77.583778 
	C19.527176,77.649818 18.957439,77.459763 18.387703,77.269714 
	C18.763138,76.892578 19.138575,76.515434 19.830244,76.222443 
z"/>
<path fill="#0D213F" opacity="1.000000" stroke="none" 
	d="
M24.332245,76.998703 
	C23.959919,76.570160 23.920519,76.141296 24.293373,75.432632 
	C25.134485,75.184196 25.563345,75.215569 25.992205,75.246941 
	C25.995136,75.621330 25.998068,75.995712 25.996983,76.650620 
	C25.550367,76.953552 25.107769,76.975975 24.332245,76.998703 
z"/>
<path fill="#01D560" opacity="1.000000" stroke="none" 
	d="
M26.199722,75.010635 
	C25.563345,75.215569 25.134485,75.184196 24.385242,75.117340 
	C23.785103,74.858086 23.505346,74.634315 23.106148,74.168976 
	C24.126886,74.209717 25.267065,74.492020 26.199722,75.010635 
z"/>
<path fill="#089552" opacity="1.000000" stroke="none" 
	d="
M24.473612,91.492897 
	C24.474606,90.942673 24.675886,90.611771 24.877169,90.280861 
	C25.150700,90.563225 25.424231,90.845596 25.697760,91.127960 
	C25.356472,91.322708 25.015186,91.517464 24.473612,91.492897 
z"/>
<path fill="#0D213F" opacity="1.000000" stroke="none" 
	d="
M23.011932,68.026825 
	C22.866034,68.700981 22.538301,69.172440 22.002684,69.515656 
	C22.139898,68.866325 22.484997,68.345230 23.011932,68.026825 
z"/>
<path fill="#0A714B" opacity="1.000000" stroke="none" 
	d="
M26.057888,81.695480 
	C25.816599,81.378052 25.879314,81.021713 25.922291,80.393875 
	C26.083143,80.090851 26.263735,80.059341 26.719250,80.025726 
	C26.783415,80.567940 26.572655,81.112259 26.057888,81.695480 
z"/>
<path fill="#0D213F" opacity="1.000000" stroke="none" 
	d="
M21.204317,69.116600 
	C21.419598,69.263611 21.386204,69.442757 21.291584,69.890289 
	C21.015831,69.929344 20.801304,69.700012 20.586777,69.470680 
	C20.709732,69.363365 20.832689,69.256050 21.204317,69.116600 
z"/>
<path fill="#0D203F" opacity="1.000000" stroke="none" 
	d="
M87.011345,139.969315 
	C83.734871,142.281921 80.474014,141.235260 77.401276,139.312897 
	C78.752937,138.417480 79.917709,138.132950 81.361206,137.755676 
	C81.812538,137.111847 81.985153,136.560745 82.157761,136.009628 
	C82.157761,136.009628 82.626678,135.999603 83.014893,136.247238 
	C83.931961,136.671631 84.460808,136.848389 84.989655,137.025146 
	C84.989655,137.025146 85.000519,136.986053 85.093254,137.285309 
	C85.798988,137.734573 86.411987,137.884583 87.024986,138.034607 
	C87.024986,138.034607 87.021111,137.979019 86.998947,138.309967 
	C86.988297,139.083710 86.999825,139.526520 87.011345,139.969315 
z"/>
<path fill="#088D50" opacity="1.000000" stroke="none" 
	d="
M81.082489,137.848404 
	C79.917709,138.132950 78.752937,138.417480 77.309540,138.945862 
	C76.764519,137.805374 76.498131,136.421051 76.117516,134.443130 
	C78.099922,135.213898 79.149635,135.622040 80.608643,136.278168 
	C81.039459,136.966904 81.060974,137.407654 81.082489,137.848404 
z"/>
<path fill="#06A556" opacity="1.000000" stroke="none" 
	d="
M84.631775,134.573380 
	C86.312271,134.127975 87.992767,133.682556 89.673264,133.237152 
	C89.760910,133.502686 89.848557,133.768219 89.936203,134.033768 
	C88.621796,134.420593 87.307388,134.807434 85.464279,135.051163 
	C84.935577,134.908066 84.631775,134.573380 84.631775,134.573380 
z"/>
<path fill="#06A556" opacity="1.000000" stroke="none" 
	d="
M85.082420,136.734467 
	C84.460808,136.848389 83.931961,136.671631 83.249344,136.241669 
	C83.453781,135.603668 83.811996,135.218887 84.400986,134.703735 
	C84.631775,134.573380 84.935577,134.908066 85.096069,135.069244 
	C85.229431,135.634888 85.202309,136.039337 85.082420,136.734467 
z"/>
<path fill="#02CD5E" opacity="1.000000" stroke="none" 
	d="
M81.361206,137.755676 
	C81.060974,137.407654 81.039459,136.966904 80.945374,136.201721 
	C81.212624,135.781677 81.552452,135.686066 82.025024,135.800049 
	C81.985153,136.560745 81.812538,137.111847 81.361206,137.755676 
z"/>
<path fill="#03C65C" opacity="1.000000" stroke="none" 
	d="
M86.962601,137.699341 
	C86.411987,137.884583 85.798988,137.734573 85.072960,137.285339 
	C85.606689,137.112122 86.253456,137.238098 86.962601,137.699341 
z"/>
<path fill="#03C65C" opacity="1.000000" stroke="none" 
	d="
M87.311745,139.872025 
	C86.999825,139.526520 86.988297,139.083710 86.971115,138.308594 
	C87.181015,138.575775 87.396576,139.175247 87.311745,139.872025 
z"/>
<path fill="#0D2340" opacity="1.000000" stroke="none" 
	d="
M82.997025,31.012363 
	C81.362846,30.870855 79.728676,30.729349 78.312271,30.015785 
	C79.361130,28.219309 80.192215,26.994888 81.317886,25.995785 
	C82.073997,27.818190 82.535507,29.415276 82.997025,31.012363 
z"/>
<path fill="#089251" opacity="1.000000" stroke="none" 
	d="
M89.084724,28.826609 
	C89.166153,29.724634 89.247581,30.622658 89.381226,32.096554 
	C87.983879,31.310074 86.868439,30.682264 85.395493,29.761637 
	C85.072609,29.298803 85.107231,29.128786 85.418022,28.808434 
	C86.118271,27.743124 86.542351,26.828148 86.966423,25.913174 
	C86.966423,25.913174 86.998367,25.976755 87.294952,25.944550 
	C88.034798,25.921791 88.478058,25.931240 88.769028,26.160530 
	C88.772987,26.980219 88.929245,27.580067 89.079071,28.341579 
	C89.072624,28.503246 89.084724,28.826609 89.084724,28.826609 
z"/>
<path fill="#07A054" opacity="1.000000" stroke="none" 
	d="
M81.023300,25.770470 
	C80.192215,26.994888 79.361130,28.219309 78.252869,29.651674 
	C77.975685,29.859619 77.664413,29.843378 77.405197,29.535007 
	C77.056244,28.497318 76.966507,27.768000 76.876770,27.038681 
	C78.142899,26.190994 79.409019,25.343307 80.842674,24.945362 
	C81.010201,25.395102 81.023300,25.770470 81.023300,25.770470 
z"/>
<path fill="#06AD57" opacity="1.000000" stroke="none" 
	d="
M81.317886,25.995785 
	C81.023300,25.770470 81.010201,25.395102 81.002579,25.207565 
	C81.970123,25.458164 82.945290,25.896301 83.968399,27.048883 
	C84.044937,28.496614 84.073524,29.229900 84.102112,29.963184 
	C83.894608,30.242329 83.687096,30.521473 83.238304,30.906490 
	C82.535507,29.415276 82.073997,27.818190 81.317886,25.995785 
z"/>
<path fill="#04BD5A" opacity="1.000000" stroke="none" 
	d="
M86.669113,25.896439 
	C86.542351,26.828148 86.118271,27.743124 85.362915,28.484985 
	C85.021942,27.874247 85.012260,27.436623 85.002579,26.998997 
	C85.458992,26.625900 85.915405,26.252800 86.669113,25.896439 
z"/>
<path fill="#03C75D" opacity="1.000000" stroke="none" 
	d="
M89.425262,28.846407 
	C89.084724,28.826609 89.072624,28.503246 89.340744,28.160923 
	C89.744759,27.208059 89.880653,26.597517 90.023224,25.968494 
	C90.029892,25.950010 90.049614,25.914392 90.049614,25.914392 
	C89.955009,26.898331 89.860397,27.882267 89.425262,28.846407 
z"/>
<path fill="#0E093D" opacity="1.000000" stroke="none" 
	d="
M76.644684,27.026735 
	C76.966507,27.768000 77.056244,28.497318 77.255722,29.579109 
	C77.135696,29.943993 76.905945,29.956398 76.335663,29.609709 
	C75.979378,28.505890 75.963615,27.761169 75.947853,27.016447 
	C75.947853,27.016447 76.412613,27.014790 76.644684,27.026735 
z"/>
<path fill="#04BD5A" opacity="1.000000" stroke="none" 
	d="
M88.921326,25.940689 
	C88.478058,25.931240 88.034798,25.921791 87.259644,25.940186 
	C87.859795,25.756693 88.791840,25.545357 89.886749,25.624207 
	C90.049614,25.914392 90.029892,25.950010 89.748001,25.988003 
	C89.284515,25.997559 89.102921,25.969124 88.921326,25.940689 
z"/>
<path fill="#03C75D" opacity="1.000000" stroke="none" 
	d="
M75.642044,27.146694 
	C75.963615,27.761169 75.979378,28.505890 75.990784,29.623135 
	C75.769691,29.089418 75.552956,28.183180 75.642044,27.146694 
z"/>
<path fill="#0E003C" opacity="1.000000" stroke="none" 
	d="
M84.773926,26.999613 
	C85.012260,27.436623 85.021942,27.874247 85.086731,28.635321 
	C85.107231,29.128786 85.072609,29.298803 85.061890,29.727934 
	C85.085793,29.987047 84.592598,29.992647 84.347351,29.977917 
	C84.073524,29.229900 84.044937,28.496614 84.052719,27.397861 
	C84.089088,27.032394 84.545273,27.000229 84.773926,26.999613 
z"/>
<path fill="#0C3843" opacity="1.000000" stroke="none" 
	d="
M239.802155,25.286995 
	C240.039856,27.513847 239.934036,29.851999 239.828217,32.190151 
	C239.398132,32.150524 238.968033,32.110897 238.537933,32.071266 
	C238.844833,29.846943 239.151733,27.622620 239.802155,25.286995 
z"/>
<path fill="#F7F8F8" opacity="1.000000" stroke="none" 
	d="
M214.770218,87.148544 
	C210.688950,87.251892 208.488052,85.288696 209.100494,81.769844 
	C209.409531,79.994316 211.465271,77.511665 213.047424,77.248276 
	C214.686554,76.975410 217.582809,78.556084 218.375351,80.115677 
	C219.892731,83.101646 218.775116,85.907799 214.770218,87.148544 
z"/>
<path fill="#EDFBF1" opacity="1.000000" stroke="none" 
	d="
M62.352791,84.610725 
	C62.347927,82.033974 62.347927,79.887756 62.347927,77.472725 
	C65.675339,76.565659 68.837746,76.609932 69.794403,80.073769 
	C70.297005,81.893539 69.150597,84.898041 67.710236,86.302223 
	C66.482841,87.498787 63.383568,88.655182 62.352791,84.610725 
z"/>
<path fill="#E9EBEC" opacity="1.000000" stroke="none" 
	d="
M237.972382,84.768822 
	C237.021652,86.444992 236.108627,87.728371 234.285416,90.291138 
	C233.175323,87.452354 232.075333,85.649689 231.914352,83.766739 
	C231.842606,82.927658 234.127914,80.973991 234.536209,81.174011 
	C235.891724,81.838051 236.880600,83.250565 237.972382,84.768822 
z"/>
<path fill="#0C4D45" opacity="1.000000" stroke="none" 
	d="
M88.769028,26.160530 
	C89.102921,25.969124 89.284515,25.997559 89.741333,26.006485 
	C89.880653,26.597517 89.744759,27.208059 89.347183,27.999256 
	C88.929245,27.580067 88.772987,26.980219 88.769028,26.160530 
z"/>
</svg>